<svg width="532" height="527" viewBox="0 0 532 527" fill="none" xmlns="http://www.w3.org/2000/svg">
<rect width="532" height="527" fill="#D2D2D2"/>
<path d="M188.192 39.3181L204.091 196.119L77.9538 290.61L62.0532 133.809L188.192 39.3181Z" stroke="black"/>
<path d="M249.938 149.204L143.466 235.052L15.0609 187.953L121.534 102.106L249.938 149.204Z" stroke="black"/>
<path d="M140.555 89.6106L133.796 98.9729L145.284 100.145L140.555 89.6106ZM132.646 167.116L133.641 167.217L140.636 98.6656L139.642 98.5641L138.647 98.4626L131.652 167.014L132.646 167.116Z" fill="#3C47E8"/>
<path d="M144.51 206.659L147.166 195.422L136.106 198.74L144.51 206.659ZM132.646 167.116L131.689 167.403L140.966 198.326L141.923 198.039L142.881 197.751L133.604 166.828L132.646 167.116Z" fill="#3C47E8"/>
<path d="M181.68 84.0745L171.624 89.7499L181.567 95.621L181.68 84.0745ZM132.646 167.116L133.508 167.624L177.965 92.3328L177.104 91.8243L176.243 91.3159L131.785 166.607L132.646 167.116Z" fill="#16881C"/>
<path d="M166.654 186.887L160.911 176.87L155.107 186.853L166.654 186.887ZM132.646 167.116L132.144 167.98L158.371 183.228L158.873 182.364L159.376 181.499L133.149 166.251L132.646 167.116Z" fill="#16881C"/>
<path d="M16.5 167H249.5" stroke="#676767" stroke-width="0.5" stroke-dasharray="2 2"/>
<line x1="38.4981" y1="102.189" x2="231.038" y2="233.97" stroke="#676767" stroke-width="0.5" stroke-dasharray="2 2"/>
<line x1="135.275" y1="284.937" x2="131.481" y2="51.6494" stroke="#676767" stroke-width="0.5" stroke-dasharray="2 2"/>
<path d="M450.192 39.3181L466.091 196.119L339.954 290.61L324.053 133.809L450.192 39.3181Z" stroke="black"/>
<path d="M402.555 89.6106L395.796 98.9729L407.284 100.145L402.555 89.6106ZM394.646 167.116L395.641 167.217L402.636 98.6656L401.642 98.5641L400.647 98.4626L393.652 167.014L394.646 167.116Z" fill="#3C47E8"/>
<path d="M443.68 84.0745L433.624 89.7499L443.567 95.621L443.68 84.0745ZM394.646 167.116L395.508 167.624L439.965 92.3328L439.104 91.8243L438.243 91.3159L393.785 166.607L394.646 167.116Z" fill="#16881C"/>
<line x1="293.999" y1="167.75" x2="513.135" y2="166.677" stroke="#676767" stroke-width="0.5" stroke-dasharray="2 2"/>
<line x1="300.498" y1="102.189" x2="493.038" y2="233.97" stroke="#676767" stroke-width="0.5" stroke-dasharray="2 2"/>
<line x1="396.275" y1="284.937" x2="392.481" y2="51.6494" stroke="#676767" stroke-width="0.5" stroke-dasharray="2 2"/>
<path d="M347.398 365.317L451.81 360.633L439.784 463.718L335.371 468.402L347.398 365.317Z" stroke="black"/>
<path d="M349 425L359.918 428.759L357.714 417.424L349 425ZM395.594 415.941L395.403 414.96L357.644 422.301L357.835 423.282L358.025 424.264L395.785 416.923L395.594 415.941Z" fill="#3C47E8"/>
<path d="M356 370L358.155 381.344L366.902 373.806L356 370ZM395.594 415.941L396.352 415.288L362.633 376.165L361.876 376.817L361.118 377.47L394.837 416.594L395.594 415.941Z" fill="#16881C"/>
<line x1="294.001" y1="414.75" x2="493.001" y2="415.896" stroke="#676767" stroke-width="0.5" stroke-dasharray="2 2"/>
<line x1="395.611" y1="503.76" x2="397.777" y2="326.997" stroke="#676767" stroke-width="0.5" stroke-dasharray="2 2"/>
<path d="M210.304 82.6713C209.57 83.0557 209.287 83.9622 209.671 84.6961C210.056 85.4299 210.962 85.7132 211.696 85.3288L211 84.0001L210.304 82.6713ZM218.372 80.1385L219.068 81.4672L218.372 80.1385ZM309.152 79.1088L308.487 80.453L309.152 79.1088ZM319.48 85.4069C320.265 85.1419 320.686 84.2908 320.421 83.5059L316.103 70.7151C315.838 69.9301 314.987 69.5087 314.202 69.7736C313.417 70.0386 312.996 70.8897 313.261 71.6746L317.099 83.0442L305.729 86.8824C304.945 87.1474 304.523 87.9985 304.788 88.7834C305.053 89.5683 305.904 89.9898 306.689 89.7248L319.48 85.4069ZM211 84.0001L211.696 85.3288L219.068 81.4672L218.372 80.1385L217.676 78.8097L210.304 82.6713L211 84.0001ZM309.152 79.1088L308.487 80.453L318.334 85.3298L319 83.9857L319.666 82.6415L309.818 77.7646L309.152 79.1088ZM218.372 80.1385L219.068 81.4672C246.995 66.8391 280.236 66.462 308.487 80.453L309.152 79.1088L309.818 77.7646C280.707 63.3475 246.453 63.736 217.676 78.8097L218.372 80.1385Z" fill="black"/>
<path d="M426.616 327.402L427.835 328.276L426.616 327.402ZM417.531 338.247C417.666 339.064 418.437 339.618 419.255 339.483L432.575 337.291C433.393 337.157 433.947 336.385 433.812 335.567C433.678 334.75 432.906 334.196 432.088 334.331L420.248 336.279L418.299 324.439C418.165 323.621 417.393 323.068 416.575 323.202C415.758 323.337 415.204 324.108 415.339 324.926L417.531 338.247ZM430.285 254.211C429.848 253.508 428.923 253.292 428.22 253.729C427.516 254.166 427.3 255.091 427.738 255.795L429.011 255.003L430.285 254.211ZM426.616 327.402L425.397 326.528L417.792 337.129L419.011 338.003L420.23 338.877L427.835 328.276L426.616 327.402ZM429.011 255.003L427.738 255.795C441.338 277.675 440.415 305.594 425.397 326.528L426.616 327.402L427.835 328.276C443.56 306.357 444.527 277.122 430.285 254.211L429.011 255.003Z" fill="black"/>
<path d="M263.485 52.5745H266.511C268.997 52.5745 271.483 50.7373 271.483 48.6839C271.483 47.2789 270.294 46 268.024 46H262.458C262.116 46 261.954 46 261.954 46.3422C261.954 46.5224 262.116 46.5224 262.386 46.5224C263.485 46.5224 263.485 46.6665 263.485 46.8646C263.485 46.9006 263.485 47.0087 263.413 47.2789L260.981 56.9696C260.819 57.6 260.783 57.7801 259.522 57.7801C259.18 57.7801 259 57.7801 259 58.1044C259 58.3025 259.162 58.3025 259.27 58.3025C259.612 58.3025 259.973 58.2665 260.315 58.2665H262.422C262.765 58.2665 263.143 58.3025 263.485 58.3025C263.629 58.3025 263.827 58.3025 263.827 57.9603C263.827 57.7801 263.665 57.7801 263.395 57.7801C262.314 57.7801 262.296 57.6541 262.296 57.4739C262.296 57.3839 262.314 57.2578 262.332 57.1677L263.485 52.5745ZM264.782 47.2248C264.944 46.5584 265.016 46.5224 265.719 46.5224H267.502C268.853 46.5224 269.97 46.9547 269.97 48.3056C269.97 48.7739 269.735 50.305 268.907 51.1335C268.601 51.4578 267.736 52.1422 266.097 52.1422H263.557L264.782 47.2248Z" fill="black"/>
<path d="M312.154 378.492C312.978 378.407 313.577 377.67 313.492 376.846L312.103 363.417C312.018 362.593 311.281 361.994 310.457 362.08C309.632 362.165 309.034 362.902 309.119 363.726L310.354 375.662L298.417 376.897C297.593 376.982 296.994 377.719 297.08 378.543C297.165 379.368 297.902 379.966 298.726 379.881L312.154 378.492ZM168 260L167.054 261.164L311.054 378.164L312 377L312.946 375.836L168.946 258.836L168 260Z" fill="black"/>
<path d="M221.485 326.075H224.511C226.997 326.075 229.483 324.237 229.483 322.184C229.483 320.779 228.294 319.5 226.024 319.5H220.458C220.116 319.5 219.954 319.5 219.954 319.842C219.954 320.022 220.116 320.022 220.386 320.022C221.485 320.022 221.485 320.166 221.485 320.365C221.485 320.401 221.485 320.509 221.413 320.779L218.981 330.47C218.819 331.1 218.783 331.28 217.522 331.28C217.18 331.28 217 331.28 217 331.604C217 331.803 217.162 331.803 217.27 331.803C217.612 331.803 217.973 331.766 218.315 331.766H220.422C220.765 331.766 221.143 331.803 221.485 331.803C221.629 331.803 221.827 331.803 221.827 331.46C221.827 331.28 221.665 331.28 221.395 331.28C220.314 331.28 220.296 331.154 220.296 330.974C220.296 330.884 220.314 330.758 220.332 330.668L221.485 326.075ZM222.782 320.725C222.944 320.058 223.016 320.022 223.719 320.022H225.502C226.853 320.022 227.97 320.455 227.97 321.806C227.97 322.274 227.735 323.805 226.907 324.634C226.601 324.958 225.736 325.642 224.097 325.642H221.557L222.782 320.725Z" fill="black"/>
<path d="M205.45 329.862C204.819 330.924 204.207 331.284 203.342 331.339C203.144 331.357 203 331.357 203 331.681C203 331.789 203.09 331.861 203.216 331.861C203.54 331.861 204.351 331.825 204.675 331.825C205.198 331.825 205.774 331.861 206.278 331.861C206.386 331.861 206.602 331.861 206.602 331.519C206.602 331.357 206.458 331.339 206.35 331.339C205.936 331.303 205.594 331.158 205.594 330.726C205.594 330.474 205.702 330.276 205.936 329.88L207.305 327.61H211.898C211.916 327.772 211.916 327.916 211.934 328.078C211.988 328.547 212.204 330.42 212.204 330.762C212.204 331.303 211.286 331.339 210.998 331.339C210.799 331.339 210.601 331.339 210.601 331.663C210.601 331.861 210.763 331.861 210.871 331.861C211.178 331.861 211.538 331.825 211.844 331.825H212.871C213.97 331.825 214.762 331.861 214.78 331.861C214.906 331.861 215.104 331.861 215.104 331.519C215.104 331.339 214.942 331.339 214.672 331.339C213.681 331.339 213.663 331.176 213.609 330.636L212.511 319.396C212.475 319.036 212.402 319 212.204 319C212.024 319 211.916 319.036 211.754 319.306L205.45 329.862ZM207.611 327.088L211.232 321.035L211.844 327.088H207.611Z" fill="black"/>
<path d="M446.45 301.862C445.819 302.924 445.207 303.284 444.342 303.339C444.144 303.357 444 303.357 444 303.681C444 303.789 444.09 303.861 444.216 303.861C444.54 303.861 445.351 303.825 445.675 303.825C446.198 303.825 446.774 303.861 447.278 303.861C447.386 303.861 447.602 303.861 447.602 303.519C447.602 303.357 447.458 303.339 447.35 303.339C446.936 303.303 446.594 303.158 446.594 302.726C446.594 302.474 446.702 302.276 446.936 301.88L448.305 299.61H452.898C452.916 299.772 452.916 299.916 452.934 300.078C452.988 300.547 453.204 302.42 453.204 302.762C453.204 303.303 452.286 303.339 451.998 303.339C451.799 303.339 451.601 303.339 451.601 303.663C451.601 303.861 451.763 303.861 451.871 303.861C452.178 303.861 452.538 303.825 452.844 303.825H453.871C454.97 303.825 455.762 303.861 455.78 303.861C455.906 303.861 456.104 303.861 456.104 303.519C456.104 303.339 455.942 303.339 455.672 303.339C454.681 303.339 454.663 303.176 454.609 302.636L453.511 291.396C453.475 291.036 453.402 291 453.204 291C453.024 291 452.916 291.036 452.754 291.306L446.45 301.862ZM448.611 299.088L452.232 293.035L452.844 299.088H448.611Z" fill="black"/>
<path d="M465.964 322H462.832C462.728 322 462.684 321.952 462.7 321.856L462.784 321.244C462.792 321.148 462.848 321.1 462.952 321.1H463.876L464.836 314.284H463.912C463.824 314.284 463.784 314.236 463.792 314.14L463.876 313.528C463.892 313.432 463.948 313.384 464.044 313.384H467.74C468.5 313.384 469.112 313.596 469.576 314.02C470.048 314.444 470.284 315.02 470.284 315.748C470.284 316.676 469.98 317.408 469.372 317.944C468.764 318.48 467.928 318.748 466.864 318.748H465.256L464.92 321.1H466.084C466.18 321.1 466.224 321.148 466.216 321.244L466.132 321.856C466.116 321.952 466.06 322 465.964 322ZM466.936 317.896C467.664 317.896 468.228 317.728 468.628 317.392C469.028 317.048 469.228 316.532 469.228 315.844C469.228 315.324 469.06 314.936 468.724 314.68C468.388 314.416 467.96 314.284 467.44 314.284H465.88L465.376 317.896H466.936ZM472.774 322.084C472.006 322.084 471.382 321.848 470.902 321.376C470.422 320.896 470.182 320.256 470.182 319.456C470.182 318.424 470.518 317.592 471.19 316.96C471.87 316.328 472.686 316.012 473.638 316.012C474.406 316.012 475.03 316.248 475.51 316.72C475.99 317.184 476.23 317.812 476.23 318.604C476.23 319.628 475.898 320.464 475.234 321.112C474.57 321.76 473.75 322.084 472.774 322.084ZM471.19 319.36C471.19 319.928 471.35 320.384 471.67 320.728C471.998 321.072 472.434 321.244 472.978 321.244C473.53 321.244 474.042 321.008 474.514 320.536C474.986 320.056 475.222 319.448 475.222 318.712C475.222 318.152 475.058 317.704 474.73 317.368C474.402 317.024 473.998 316.852 473.518 316.852C472.91 316.852 472.37 317.088 471.898 317.56C471.426 318.024 471.19 318.624 471.19 319.36ZM479.317 322.084C478.781 322.084 478.369 321.984 478.081 321.784C477.793 321.584 477.617 321.396 477.553 321.22H477.529C477.489 321.612 477.469 321.82 477.469 321.844C477.453 321.948 477.389 322 477.277 322H476.869C476.765 322 476.721 321.948 476.737 321.844L476.989 320.044C477.005 319.94 477.065 319.888 477.169 319.888H477.637C477.749 319.888 477.797 319.94 477.781 320.044L477.745 320.284C477.753 320.308 477.761 320.344 477.769 320.392C477.785 320.44 477.829 320.524 477.901 320.644C477.973 320.756 478.061 320.856 478.165 320.944C478.429 321.184 478.797 321.304 479.269 321.304C479.749 321.304 480.113 321.212 480.361 321.028C480.609 320.844 480.733 320.6 480.733 320.296C480.733 320.096 480.621 319.936 480.397 319.816C480.173 319.688 479.901 319.588 479.581 319.516C479.261 319.436 478.941 319.348 478.621 319.252C478.301 319.148 478.029 318.984 477.805 318.76C477.581 318.536 477.469 318.252 477.469 317.908C477.469 317.34 477.685 316.884 478.117 316.54C478.557 316.188 479.097 316.012 479.737 316.012C480.529 316.012 481.061 316.244 481.333 316.708H481.357C481.381 316.452 481.393 316.32 481.393 316.312C481.401 316.176 481.465 316.108 481.585 316.108H481.969C482.073 316.108 482.117 316.16 482.101 316.264L481.861 317.932C481.845 318.036 481.781 318.088 481.669 318.088H481.201C481.097 318.088 481.053 318.036 481.069 317.932L481.093 317.764C481.101 317.732 481.105 317.7 481.105 317.668C481.105 317.484 480.997 317.296 480.781 317.104C480.573 316.904 480.261 316.804 479.845 316.804C479.429 316.804 479.093 316.896 478.837 317.08C478.581 317.264 478.453 317.512 478.453 317.824C478.453 318.184 478.845 318.464 479.629 318.664C479.957 318.752 480.285 318.848 480.613 318.952C480.941 319.048 481.217 319.204 481.441 319.42C481.673 319.628 481.789 319.896 481.789 320.224C481.789 320.736 481.581 321.176 481.165 321.544C480.757 321.904 480.141 322.084 479.317 322.084ZM485.132 322.084C484.524 322.084 484.076 321.912 483.788 321.568C483.564 321.304 483.452 320.952 483.452 320.512C483.452 320.368 483.464 320.212 483.488 320.044L483.932 316.9H483.248C483.136 316.9 483.088 316.848 483.104 316.744L483.176 316.252C483.192 316.148 483.256 316.096 483.368 316.096H484.04L484.208 314.884C484.224 314.772 484.288 314.716 484.4 314.716H485.072C485.184 314.716 485.232 314.772 485.216 314.884L485.036 316.096H486.56C486.656 316.096 486.704 316.132 486.704 316.204C486.704 316.22 486.7 316.236 486.692 316.252L486.632 316.744C486.616 316.848 486.552 316.9 486.44 316.9H484.928L484.496 320.02C484.48 320.14 484.472 320.252 484.472 320.356C484.472 320.94 484.76 321.232 485.336 321.232C485.584 321.232 485.812 321.148 486.02 320.98C486.124 320.956 486.196 320.968 486.236 321.016L486.476 321.388C486.524 321.46 486.5 321.536 486.404 321.616C486.012 321.928 485.588 322.084 485.132 322.084ZM491.448 319.336H487.716C487.612 319.336 487.568 319.284 487.584 319.18L487.668 318.568C487.684 318.464 487.744 318.412 487.848 318.412H491.58C491.692 318.412 491.74 318.464 491.724 318.568L491.64 319.18C491.624 319.284 491.56 319.336 491.448 319.336ZM502.009 322H499.237C499.141 322 499.101 321.952 499.117 321.856L499.201 321.244C499.209 321.148 499.265 321.1 499.369 321.1H500.173L501.013 315.124H501.001L497.929 320.788C497.793 321.028 497.597 321.148 497.341 321.148C497.085 321.148 496.929 321.028 496.873 320.788L495.385 315.124H495.361L494.521 321.1H495.325C495.421 321.1 495.465 321.148 495.457 321.244L495.373 321.856C495.357 321.952 495.297 322 495.193 322H492.433C492.329 322 492.285 321.952 492.301 321.856L492.385 321.244C492.393 321.148 492.449 321.1 492.553 321.1H493.477L494.437 314.284H493.513C493.425 314.284 493.385 314.236 493.393 314.14L493.477 313.528C493.493 313.432 493.549 313.384 493.645 313.384H495.493C495.757 313.384 495.929 313.52 496.009 313.792L497.185 318.112L497.545 319.624H497.581C497.893 319 498.149 318.504 498.349 318.136L500.749 313.792C500.893 313.52 501.105 313.384 501.385 313.384H503.221C503.317 313.384 503.361 313.432 503.353 313.528L503.269 314.14C503.253 314.236 503.193 314.284 503.089 314.284H502.177L501.217 321.1H502.141C502.245 321.1 502.285 321.148 502.261 321.244L502.177 321.856C502.169 321.952 502.113 322 502.009 322ZM509.966 322H503.402C503.298 322 503.254 321.952 503.27 321.856L503.354 321.244C503.362 321.148 503.418 321.1 503.522 321.1H504.446L505.406 314.284H504.482C504.394 314.284 504.354 314.236 504.362 314.14L504.446 313.528C504.462 313.432 504.518 313.384 504.614 313.384H507.482C507.594 313.384 507.642 313.436 507.626 313.54L507.542 314.128C507.526 314.232 507.466 314.284 507.362 314.284H506.45L505.49 321.1H509.306L509.474 319.924C509.482 319.828 509.538 319.78 509.642 319.78H510.302C510.398 319.78 510.438 319.828 510.422 319.924L510.158 321.844C510.142 321.948 510.078 322 509.966 322ZM514.104 322H510.972C510.868 322 510.824 321.952 510.84 321.856L510.924 321.244C510.932 321.148 510.988 321.1 511.092 321.1H512.016L512.976 314.284H512.052C511.964 314.284 511.924 314.236 511.932 314.14L512.016 313.528C512.032 313.432 512.088 313.384 512.184 313.384H515.88C516.64 313.384 517.252 313.596 517.716 314.02C518.188 314.444 518.424 315.02 518.424 315.748C518.424 316.676 518.12 317.408 517.512 317.944C516.904 318.48 516.068 318.748 515.004 318.748H513.396L513.06 321.1H514.224C514.32 321.1 514.364 321.148 514.356 321.244L514.272 321.856C514.256 321.952 514.2 322 514.104 322ZM515.076 317.896C515.804 317.896 516.368 317.728 516.768 317.392C517.168 317.048 517.368 316.532 517.368 315.844C517.368 315.324 517.2 314.936 516.864 314.68C516.528 314.416 516.1 314.284 515.58 314.284H514.02L513.516 317.896H515.076ZM469.258 337H468.586C468.482 337 468.438 336.952 468.454 336.856L468.85 334.048C468.866 333.944 468.922 333.892 469.018 333.892H469.774C469.878 333.892 469.922 333.944 469.906 334.048L469.87 334.3C469.846 334.444 469.906 334.644 470.05 334.9C470.202 335.156 470.358 335.364 470.518 335.524C470.686 335.684 470.914 335.824 471.202 335.944C471.498 336.056 471.826 336.112 472.186 336.112C472.858 336.112 473.39 335.972 473.782 335.692C474.174 335.404 474.37 335.012 474.37 334.516C474.37 334.068 474.054 333.736 473.422 333.52C473.134 333.416 472.818 333.324 472.474 333.244C472.138 333.156 471.798 333.056 471.454 332.944C471.118 332.832 470.806 332.7 470.518 332.548C470.238 332.388 470.01 332.172 469.834 331.9C469.658 331.62 469.57 331.292 469.57 330.916C469.57 330.18 469.862 329.564 470.446 329.068C471.03 328.564 471.79 328.312 472.726 328.312C473.822 328.312 474.57 328.628 474.97 329.26L475.054 328.516C475.07 328.42 475.126 328.372 475.222 328.372H475.906C475.994 328.372 476.034 328.42 476.026 328.516L475.666 331.132C475.642 331.228 475.582 331.276 475.486 331.276H474.73C474.642 331.276 474.602 331.228 474.61 331.132L474.658 330.796C474.666 330.756 474.67 330.72 474.67 330.688C474.67 330.392 474.518 330.088 474.214 329.776C473.918 329.456 473.446 329.296 472.798 329.296C472.158 329.296 471.65 329.44 471.274 329.728C470.906 330.008 470.722 330.34 470.722 330.724C470.722 331.108 470.89 331.404 471.226 331.612C471.562 331.82 471.97 331.984 472.45 332.104C472.93 332.216 473.41 332.344 473.89 332.488C474.37 332.632 474.778 332.864 475.114 333.184C475.45 333.504 475.618 333.912 475.618 334.408C475.618 335.152 475.33 335.784 474.754 336.304C474.186 336.824 473.35 337.084 472.246 337.084C471.51 337.084 470.922 336.936 470.482 336.64C470.05 336.344 469.75 336.024 469.582 335.68L469.426 336.856C469.418 336.952 469.362 337 469.258 337ZM478.898 337.084C478.29 337.084 477.842 336.912 477.554 336.568C477.33 336.304 477.218 335.952 477.218 335.512C477.218 335.368 477.23 335.212 477.254 335.044L477.698 331.9H477.014C476.902 331.9 476.854 331.848 476.87 331.744L476.942 331.252C476.958 331.148 477.022 331.096 477.134 331.096H477.806L477.974 329.884C477.99 329.772 478.054 329.716 478.166 329.716H478.838C478.95 329.716 478.998 329.772 478.982 329.884L478.802 331.096H480.326C480.422 331.096 480.47 331.132 480.47 331.204C480.47 331.22 480.466 331.236 480.458 331.252L480.398 331.744C480.382 331.848 480.318 331.9 480.206 331.9H478.694L478.262 335.02C478.246 335.14 478.238 335.252 478.238 335.356C478.238 335.94 478.526 336.232 479.102 336.232C479.35 336.232 479.578 336.148 479.786 335.98C479.89 335.956 479.962 335.968 480.002 336.016L480.242 336.388C480.29 336.46 480.266 336.536 480.17 336.616C479.778 336.928 479.354 337.084 478.898 337.084ZM486.304 334.168H481.984C481.976 334.272 481.972 334.376 481.972 334.48C481.972 334.992 482.124 335.416 482.428 335.752C482.74 336.08 483.14 336.244 483.628 336.244C484.116 336.244 484.544 336.14 484.912 335.932C485.288 335.724 485.556 335.52 485.716 335.32C485.788 335.24 485.86 335.228 485.932 335.284L486.22 335.608C486.292 335.68 486.296 335.756 486.232 335.836C486.168 335.916 486.068 336.016 485.932 336.136C485.804 336.256 485.628 336.392 485.404 336.544C484.86 336.904 484.22 337.084 483.484 337.084C482.748 337.084 482.14 336.848 481.66 336.376C481.18 335.904 480.94 335.292 480.94 334.54C480.94 333.788 481.104 333.144 481.432 332.608C481.768 332.064 482.184 331.664 482.68 331.408C483.176 331.144 483.696 331.012 484.24 331.012C484.968 331.012 485.532 331.228 485.932 331.66C486.34 332.084 486.544 332.676 486.544 333.436C486.544 333.924 486.464 334.168 486.304 334.168ZM485.596 333.232C485.596 332.832 485.48 332.496 485.248 332.224C485.016 331.944 484.66 331.804 484.18 331.804C483.7 331.804 483.268 331.94 482.884 332.212C482.508 332.484 482.248 332.892 482.104 333.436H485.584C485.592 333.364 485.596 333.296 485.596 333.232ZM492.761 334.168H488.441C488.433 334.272 488.429 334.376 488.429 334.48C488.429 334.992 488.581 335.416 488.885 335.752C489.197 336.08 489.597 336.244 490.085 336.244C490.573 336.244 491.001 336.14 491.369 335.932C491.745 335.724 492.013 335.52 492.173 335.32C492.245 335.24 492.317 335.228 492.389 335.284L492.677 335.608C492.749 335.68 492.753 335.756 492.689 335.836C492.625 335.916 492.525 336.016 492.389 336.136C492.261 336.256 492.085 336.392 491.861 336.544C491.317 336.904 490.677 337.084 489.941 337.084C489.205 337.084 488.597 336.848 488.117 336.376C487.637 335.904 487.397 335.292 487.397 334.54C487.397 333.788 487.561 333.144 487.889 332.608C488.225 332.064 488.641 331.664 489.137 331.408C489.633 331.144 490.153 331.012 490.697 331.012C491.425 331.012 491.989 331.228 492.389 331.66C492.797 332.084 493.001 332.676 493.001 333.436C493.001 333.924 492.921 334.168 492.761 334.168ZM492.053 333.232C492.053 332.832 491.937 332.496 491.705 332.224C491.473 331.944 491.117 331.804 490.637 331.804C490.157 331.804 489.725 331.94 489.341 332.212C488.965 332.484 488.705 332.892 488.561 333.436H492.041C492.049 333.364 492.053 333.296 492.053 333.232ZM495.918 337H493.626C493.522 337 493.478 336.952 493.494 336.856L493.578 336.34C493.586 336.244 493.638 336.196 493.734 336.196H494.406L495.018 331.9H494.346C494.242 331.9 494.198 331.852 494.214 331.756L494.286 331.24C494.302 331.144 494.358 331.096 494.454 331.096H495.87C495.974 331.096 496.014 331.144 495.99 331.24L495.786 332.74H495.822C495.87 332.604 495.978 332.428 496.146 332.212C496.322 331.988 496.506 331.804 496.698 331.66C496.89 331.508 497.158 331.372 497.502 331.252C497.846 331.132 498.222 331.072 498.63 331.072C498.734 331.072 498.778 331.124 498.762 331.228L498.666 331.864C498.65 331.968 498.594 332.02 498.498 332.02H498.246C497.558 332.02 496.978 332.24 496.506 332.68C496.034 333.12 495.758 333.62 495.678 334.18L495.402 336.196H496.038C496.134 336.196 496.178 336.244 496.17 336.34L496.098 336.856C496.09 336.952 496.03 337 495.918 337ZM500.968 337H498.676C498.572 337 498.528 336.952 498.544 336.856L498.628 336.34C498.636 336.244 498.688 336.196 498.784 336.196H499.456L500.068 331.9H499.396C499.292 331.9 499.248 331.852 499.264 331.756L499.336 331.24C499.352 331.144 499.408 331.096 499.504 331.096H501.016C501.112 331.096 501.156 331.144 501.148 331.24L500.452 336.196H501.088C501.184 336.196 501.228 336.244 501.22 336.34L501.148 336.856C501.14 336.952 501.08 337 500.968 337ZM500.896 329.116C501.088 329.116 501.24 329.176 501.352 329.296C501.464 329.408 501.52 329.556 501.52 329.74C501.52 329.924 501.44 330.092 501.28 330.244C501.12 330.388 500.948 330.46 500.764 330.46C500.58 330.46 500.432 330.404 500.32 330.292C500.216 330.18 500.164 330.032 500.164 329.848C500.164 329.664 500.24 329.496 500.392 329.344C500.544 329.192 500.712 329.116 500.896 329.116ZM508.42 337H507.28C506.976 337 506.824 336.876 506.824 336.628C506.824 336.588 506.828 336.544 506.836 336.496L507.268 333.34C507.284 333.22 507.292 333.108 507.292 333.004C507.292 332.708 507.224 332.464 507.088 332.272C506.904 332.008 506.612 331.876 506.212 331.876C505.94 331.876 505.68 331.96 505.432 332.128C505.184 332.288 504.984 332.488 504.832 332.728C504.592 333.088 504.42 333.404 504.316 333.676L503.968 336.196H504.604C504.7 336.196 504.744 336.244 504.736 336.34L504.664 336.856C504.656 336.952 504.596 337 504.484 337H502.192C502.088 337 502.044 336.952 502.06 336.856L502.144 336.34C502.152 336.244 502.204 336.196 502.3 336.196H502.972L503.584 331.9H502.912C502.808 331.9 502.764 331.852 502.78 331.756L502.852 331.24C502.868 331.144 502.924 331.096 503.02 331.096H504.436C504.532 331.096 504.572 331.144 504.556 331.24L504.34 332.68H504.376C504.392 332.568 504.468 332.396 504.604 332.164C504.74 331.932 504.88 331.744 505.024 331.6C505.176 331.448 505.384 331.312 505.648 331.192C505.92 331.072 506.22 331.012 506.548 331.012C507.188 331.012 507.66 331.2 507.964 331.576C508.204 331.872 508.324 332.244 508.324 332.692C508.324 332.82 508.316 332.956 508.3 333.1L507.868 336.196H508.54C508.636 336.196 508.68 336.244 508.672 336.34L508.6 336.856C508.592 336.952 508.532 337 508.42 337ZM511.631 339.808C511.239 339.808 510.943 339.78 510.743 339.724C510.543 339.668 510.383 339.616 510.263 339.568C510.143 339.528 510.043 339.484 509.963 339.436C509.891 339.396 509.819 339.352 509.747 339.304C509.491 339.12 509.363 338.984 509.363 338.896C509.363 338.864 509.379 338.832 509.411 338.8L509.783 338.356C509.839 338.284 509.907 338.28 509.987 338.344C510.235 338.544 510.419 338.668 510.539 338.716C510.659 338.764 510.775 338.804 510.887 338.836C511.135 338.908 511.419 338.944 511.739 338.944C512.315 338.944 512.795 338.804 513.179 338.524C513.563 338.252 513.799 337.82 513.887 337.228L514.079 335.92C513.879 336.248 513.599 336.524 513.239 336.748C512.879 336.972 512.451 337.084 511.955 337.084C511.235 337.084 510.667 336.848 510.251 336.376C509.843 335.904 509.639 335.284 509.639 334.516C509.639 333.484 509.939 332.644 510.539 331.996C511.147 331.34 511.903 331.012 512.807 331.012C513.303 331.012 513.703 331.128 514.007 331.36C514.319 331.584 514.531 331.86 514.643 332.188H514.667L514.787 331.24C514.803 331.144 514.855 331.096 514.943 331.096H516.359C516.463 331.096 516.507 331.144 516.491 331.24L516.419 331.756C516.403 331.852 516.343 331.9 516.239 331.9H515.591L514.847 337.228C514.727 338.084 514.375 338.728 513.791 339.16C513.207 339.592 512.487 339.808 511.631 339.808ZM510.635 334.408C510.635 334.96 510.779 335.404 511.067 335.74C511.363 336.076 511.775 336.244 512.303 336.244C512.831 336.244 513.311 336 513.743 335.512C514.175 335.016 514.391 334.404 514.391 333.676C514.391 333.116 514.243 332.672 513.947 332.344C513.659 332.016 513.287 331.852 512.831 331.852C512.223 331.852 511.703 332.092 511.271 332.572C510.847 333.044 510.635 333.656 510.635 334.408Z" fill="black"/>
<path d="M132.698 344H131.654C131.366 344 131.158 343.808 131.03 343.424L130.214 341.132C130.142 340.924 130.058 340.772 129.962 340.676C129.874 340.58 129.734 340.532 129.542 340.532H128.018L127.658 343.1H128.726C128.822 343.1 128.866 343.148 128.858 343.244L128.774 343.856C128.758 343.952 128.702 344 128.606 344H125.57C125.466 344 125.422 343.952 125.438 343.856L125.522 343.244C125.53 343.148 125.586 343.1 125.69 343.1H126.614L127.574 336.284H126.65C126.562 336.284 126.522 336.236 126.53 336.14L126.614 335.528C126.63 335.432 126.686 335.384 126.782 335.384H130.478C131.254 335.384 131.874 335.58 132.338 335.972C132.802 336.356 133.034 336.904 133.034 337.616C133.034 338.32 132.85 338.904 132.482 339.368C132.122 339.832 131.602 340.152 130.922 340.328C131.066 340.448 131.214 340.716 131.366 341.132L132.098 343.1H132.818C132.922 343.1 132.966 343.148 132.95 343.244L132.866 343.856C132.858 343.952 132.802 344 132.698 344ZM129.674 339.68C131.21 339.68 131.978 339.032 131.978 337.736C131.978 336.768 131.366 336.284 130.142 336.284H128.618L128.138 339.68H129.674ZM139.046 341.168H134.726C134.718 341.272 134.714 341.376 134.714 341.48C134.714 341.992 134.866 342.416 135.17 342.752C135.482 343.08 135.882 343.244 136.37 343.244C136.858 343.244 137.286 343.14 137.654 342.932C138.03 342.724 138.298 342.52 138.458 342.32C138.53 342.24 138.602 342.228 138.674 342.284L138.962 342.608C139.034 342.68 139.038 342.756 138.974 342.836C138.91 342.916 138.81 343.016 138.674 343.136C138.546 343.256 138.37 343.392 138.146 343.544C137.602 343.904 136.962 344.084 136.226 344.084C135.49 344.084 134.882 343.848 134.402 343.376C133.922 342.904 133.682 342.292 133.682 341.54C133.682 340.788 133.846 340.144 134.174 339.608C134.51 339.064 134.926 338.664 135.422 338.408C135.918 338.144 136.438 338.012 136.982 338.012C137.71 338.012 138.274 338.228 138.674 338.66C139.082 339.084 139.286 339.676 139.286 340.436C139.286 340.924 139.206 341.168 139.046 341.168ZM138.338 340.232C138.338 339.832 138.222 339.496 137.99 339.224C137.758 338.944 137.402 338.804 136.922 338.804C136.442 338.804 136.01 338.94 135.626 339.212C135.25 339.484 134.99 339.892 134.846 340.436H138.326C138.334 340.364 138.338 340.296 138.338 340.232ZM141.857 346.7H139.445C139.341 346.7 139.297 346.652 139.313 346.556L139.397 346.04C139.405 345.944 139.457 345.896 139.553 345.896H140.237L141.221 338.9H140.573C140.469 338.9 140.425 338.852 140.441 338.756L140.513 338.24C140.529 338.144 140.585 338.096 140.681 338.096H142.085C142.197 338.096 142.241 338.144 142.217 338.24L142.061 339.236H142.085C142.573 338.42 143.293 338.012 144.245 338.012C144.957 338.012 145.521 338.244 145.937 338.708C146.353 339.164 146.561 339.78 146.561 340.556C146.561 341.564 146.265 342.404 145.673 343.076C145.081 343.748 144.325 344.084 143.405 344.084C142.909 344.084 142.509 343.972 142.205 343.748C141.909 343.516 141.713 343.236 141.617 342.908H141.581C141.565 343.164 141.549 343.348 141.533 343.46L141.197 345.896H141.977C142.073 345.896 142.113 345.944 142.097 346.04L142.037 346.556C142.029 346.652 141.969 346.7 141.857 346.7ZM143.381 343.244C143.981 343.244 144.497 343.004 144.929 342.524C145.361 342.044 145.577 341.432 145.577 340.688C145.577 340.128 145.433 339.684 145.145 339.356C144.857 339.02 144.449 338.852 143.921 338.852C143.401 338.852 142.917 339.084 142.469 339.548C142.029 340.004 141.809 340.644 141.809 341.468C141.809 342.012 141.961 342.444 142.265 342.764C142.569 343.084 142.941 343.244 143.381 343.244ZM149.304 344H147.012C146.908 344 146.864 343.952 146.88 343.856L146.964 343.34C146.972 343.244 147.024 343.196 147.12 343.196H147.792L148.788 336.188H148.116C148.004 336.188 147.96 336.14 147.984 336.044L148.056 335.528C148.072 335.432 148.128 335.384 148.224 335.384H149.556C149.756 335.384 149.856 335.46 149.856 335.612C149.856 335.636 149.852 335.66 149.844 335.684L148.788 343.196H149.424C149.52 343.196 149.564 343.244 149.556 343.34L149.484 343.856C149.476 343.952 149.416 344 149.304 344ZM152.82 344H150.528C150.424 344 150.38 343.952 150.396 343.856L150.48 343.34C150.488 343.244 150.54 343.196 150.636 343.196H151.308L151.92 338.9H151.248C151.144 338.9 151.1 338.852 151.116 338.756L151.188 338.24C151.204 338.144 151.26 338.096 151.356 338.096H152.868C152.964 338.096 153.008 338.144 153 338.24L152.304 343.196H152.94C153.036 343.196 153.08 343.244 153.072 343.34L153 343.856C152.992 343.952 152.932 344 152.82 344ZM152.748 336.116C152.94 336.116 153.092 336.176 153.204 336.296C153.316 336.408 153.372 336.556 153.372 336.74C153.372 336.924 153.292 337.092 153.132 337.244C152.972 337.388 152.8 337.46 152.616 337.46C152.432 337.46 152.284 337.404 152.172 337.292C152.068 337.18 152.016 337.032 152.016 336.848C152.016 336.664 152.092 336.496 152.244 336.344C152.396 336.192 152.564 336.116 152.748 336.116ZM156.699 344.084C155.939 344.084 155.319 343.852 154.839 343.388C154.367 342.916 154.131 342.276 154.131 341.468C154.131 340.42 154.467 339.584 155.139 338.96C155.811 338.328 156.575 338.012 157.431 338.012C158.295 338.012 158.895 338.308 159.231 338.9H159.243L159.327 338.24C159.343 338.136 159.399 338.084 159.495 338.084H159.951C160.055 338.084 160.099 338.136 160.083 338.24L159.795 340.28C159.779 340.376 159.723 340.424 159.627 340.424H159.087C158.983 340.424 158.939 340.376 158.955 340.28L158.979 340.076C158.987 340.044 158.991 340.008 158.991 339.968C158.991 339.72 158.855 339.472 158.583 339.224C158.319 338.976 157.923 338.852 157.395 338.852C156.875 338.852 156.371 339.08 155.883 339.536C155.395 339.984 155.151 340.588 155.151 341.348C155.151 341.932 155.319 342.396 155.655 342.74C155.991 343.076 156.383 343.244 156.831 343.244C157.279 343.244 157.703 343.136 158.103 342.92C158.503 342.696 158.771 342.492 158.907 342.308C158.979 342.22 159.051 342.208 159.123 342.272L159.411 342.608C159.483 342.68 159.483 342.76 159.411 342.848C159.347 342.928 159.255 343.028 159.135 343.148C159.015 343.26 158.843 343.392 158.619 343.544C158.107 343.904 157.467 344.084 156.699 344.084ZM166.096 344H165.052C164.748 344 164.596 343.876 164.596 343.628C164.596 343.588 164.6 343.544 164.608 343.496L164.692 342.884H164.668C163.988 343.692 163.152 344.096 162.16 344.096C161.64 344.096 161.216 343.964 160.888 343.7C160.568 343.436 160.408 343.08 160.408 342.632C160.408 341.912 160.72 341.38 161.344 341.036C161.976 340.692 162.832 340.52 163.912 340.52H164.92L164.944 340.376C164.968 340.248 164.98 340.124 164.98 340.004C164.98 339.252 164.516 338.876 163.588 338.876C163.1 338.876 162.74 338.924 162.508 339.02C162.284 339.108 162.12 339.18 162.016 339.236C161.92 339.292 161.844 339.34 161.788 339.38C161.74 339.412 161.712 339.428 161.704 339.428C161.616 339.46 161.556 339.448 161.524 339.392L161.248 338.972C161.208 338.908 161.224 338.844 161.296 338.78C161.368 338.708 161.468 338.628 161.596 338.54C161.732 338.444 162.004 338.332 162.412 338.204C162.82 338.076 163.264 338.012 163.744 338.012C165.232 338.012 165.976 338.632 165.976 339.872C165.976 340.04 165.96 340.22 165.928 340.412L165.532 343.196H166.216C166.304 343.196 166.344 343.244 166.336 343.34L166.264 343.856C166.256 343.952 166.2 344 166.096 344ZM163.864 341.24C163.128 341.24 162.604 341.296 162.292 341.408C161.98 341.512 161.764 341.644 161.644 341.804C161.524 341.956 161.464 342.156 161.464 342.404C161.464 342.644 161.564 342.844 161.764 343.004C161.964 343.164 162.236 343.244 162.58 343.244C163.364 343.244 164.064 342.9 164.68 342.212L164.812 341.24H163.864ZM169.573 344.084C168.965 344.084 168.517 343.912 168.229 343.568C168.005 343.304 167.893 342.952 167.893 342.512C167.893 342.368 167.905 342.212 167.929 342.044L168.373 338.9H167.689C167.577 338.9 167.529 338.848 167.545 338.744L167.617 338.252C167.633 338.148 167.697 338.096 167.809 338.096H168.481L168.649 336.884C168.665 336.772 168.729 336.716 168.841 336.716H169.513C169.625 336.716 169.673 336.772 169.657 336.884L169.477 338.096H171.001C171.097 338.096 171.145 338.132 171.145 338.204C171.145 338.22 171.141 338.236 171.133 338.252L171.073 338.744C171.057 338.848 170.993 338.9 170.881 338.9H169.369L168.937 342.02C168.921 342.14 168.913 342.252 168.913 342.356C168.913 342.94 169.201 343.232 169.777 343.232C170.025 343.232 170.253 343.148 170.461 342.98C170.565 342.956 170.637 342.968 170.677 343.016L170.917 343.388C170.965 343.46 170.941 343.536 170.845 343.616C170.453 343.928 170.029 344.084 169.573 344.084ZM173.984 344H171.692C171.588 344 171.544 343.952 171.56 343.856L171.644 343.34C171.652 343.244 171.704 343.196 171.8 343.196H172.472L173.084 338.9H172.412C172.308 338.9 172.264 338.852 172.28 338.756L172.352 338.24C172.368 338.144 172.424 338.096 172.52 338.096H174.032C174.128 338.096 174.172 338.144 174.164 338.24L173.468 343.196H174.104C174.2 343.196 174.244 343.244 174.236 343.34L174.164 343.856C174.156 343.952 174.096 344 173.984 344ZM173.912 336.116C174.104 336.116 174.256 336.176 174.368 336.296C174.48 336.408 174.536 336.556 174.536 336.74C174.536 336.924 174.456 337.092 174.296 337.244C174.136 337.388 173.964 337.46 173.78 337.46C173.596 337.46 173.448 337.404 173.336 337.292C173.232 337.18 173.18 337.032 173.18 336.848C173.18 336.664 173.256 336.496 173.408 336.344C173.56 336.192 173.728 336.116 173.912 336.116ZM181.436 344H180.296C179.992 344 179.84 343.876 179.84 343.628C179.84 343.588 179.844 343.544 179.852 343.496L180.284 340.34C180.3 340.22 180.308 340.108 180.308 340.004C180.308 339.708 180.24 339.464 180.104 339.272C179.92 339.008 179.628 338.876 179.228 338.876C178.956 338.876 178.696 338.96 178.448 339.128C178.2 339.288 178 339.488 177.848 339.728C177.608 340.088 177.436 340.404 177.332 340.676L176.984 343.196H177.62C177.716 343.196 177.76 343.244 177.752 343.34L177.68 343.856C177.672 343.952 177.612 344 177.5 344H175.208C175.104 344 175.06 343.952 175.076 343.856L175.16 343.34C175.168 343.244 175.22 343.196 175.316 343.196H175.988L176.6 338.9H175.928C175.824 338.9 175.78 338.852 175.796 338.756L175.868 338.24C175.884 338.144 175.94 338.096 176.036 338.096H177.452C177.548 338.096 177.588 338.144 177.572 338.24L177.356 339.68H177.392C177.408 339.568 177.484 339.396 177.62 339.164C177.756 338.932 177.896 338.744 178.04 338.6C178.192 338.448 178.4 338.312 178.664 338.192C178.936 338.072 179.236 338.012 179.564 338.012C180.204 338.012 180.676 338.2 180.98 338.576C181.22 338.872 181.34 339.244 181.34 339.692C181.34 339.82 181.332 339.956 181.316 340.1L180.884 343.196H181.556C181.652 343.196 181.696 343.244 181.688 343.34L181.616 343.856C181.608 343.952 181.548 344 181.436 344ZM184.646 346.808C184.254 346.808 183.958 346.78 183.758 346.724C183.558 346.668 183.398 346.616 183.278 346.568C183.158 346.528 183.058 346.484 182.978 346.436C182.906 346.396 182.834 346.352 182.762 346.304C182.506 346.12 182.378 345.984 182.378 345.896C182.378 345.864 182.394 345.832 182.426 345.8L182.798 345.356C182.854 345.284 182.922 345.28 183.002 345.344C183.25 345.544 183.434 345.668 183.554 345.716C183.674 345.764 183.79 345.804 183.902 345.836C184.15 345.908 184.434 345.944 184.754 345.944C185.33 345.944 185.81 345.804 186.194 345.524C186.578 345.252 186.814 344.82 186.902 344.228L187.094 342.92C186.894 343.248 186.614 343.524 186.254 343.748C185.894 343.972 185.466 344.084 184.97 344.084C184.25 344.084 183.682 343.848 183.266 343.376C182.858 342.904 182.654 342.284 182.654 341.516C182.654 340.484 182.954 339.644 183.554 338.996C184.162 338.34 184.918 338.012 185.822 338.012C186.318 338.012 186.718 338.128 187.022 338.36C187.334 338.584 187.546 338.86 187.658 339.188H187.682L187.802 338.24C187.818 338.144 187.87 338.096 187.958 338.096H189.374C189.478 338.096 189.522 338.144 189.506 338.24L189.434 338.756C189.418 338.852 189.358 338.9 189.254 338.9H188.606L187.862 344.228C187.742 345.084 187.39 345.728 186.806 346.16C186.222 346.592 185.502 346.808 184.646 346.808ZM183.65 341.408C183.65 341.96 183.794 342.404 184.082 342.74C184.378 343.076 184.79 343.244 185.318 343.244C185.846 343.244 186.326 343 186.758 342.512C187.19 342.016 187.406 341.404 187.406 340.676C187.406 340.116 187.258 339.672 186.962 339.344C186.674 339.016 186.302 338.852 185.846 338.852C185.238 338.852 184.718 339.092 184.286 339.572C183.862 340.044 183.65 340.656 183.65 341.408ZM118.296 359H115.164C115.06 359 115.016 358.952 115.032 358.856L115.116 358.244C115.124 358.148 115.18 358.1 115.284 358.1H116.208L117.168 351.284H116.244C116.156 351.284 116.116 351.236 116.124 351.14L116.208 350.528C116.224 350.432 116.28 350.384 116.376 350.384H120.072C120.832 350.384 121.444 350.596 121.908 351.02C122.38 351.444 122.616 352.02 122.616 352.748C122.616 353.676 122.312 354.408 121.704 354.944C121.096 355.48 120.26 355.748 119.196 355.748H117.588L117.252 358.1H118.416C118.512 358.1 118.556 358.148 118.548 358.244L118.464 358.856C118.448 358.952 118.392 359 118.296 359ZM119.268 354.896C119.996 354.896 120.56 354.728 120.96 354.392C121.36 354.048 121.56 353.532 121.56 352.844C121.56 352.324 121.392 351.936 121.056 351.68C120.72 351.416 120.292 351.284 119.772 351.284H118.212L117.708 354.896H119.268ZM125.106 359.084C124.338 359.084 123.714 358.848 123.234 358.376C122.754 357.896 122.514 357.256 122.514 356.456C122.514 355.424 122.85 354.592 123.522 353.96C124.202 353.328 125.018 353.012 125.97 353.012C126.738 353.012 127.362 353.248 127.842 353.72C128.322 354.184 128.562 354.812 128.562 355.604C128.562 356.628 128.23 357.464 127.566 358.112C126.902 358.76 126.082 359.084 125.106 359.084ZM123.522 356.36C123.522 356.928 123.682 357.384 124.002 357.728C124.33 358.072 124.766 358.244 125.31 358.244C125.862 358.244 126.374 358.008 126.846 357.536C127.318 357.056 127.554 356.448 127.554 355.712C127.554 355.152 127.39 354.704 127.062 354.368C126.734 354.024 126.33 353.852 125.85 353.852C125.242 353.852 124.702 354.088 124.23 354.56C123.758 355.024 123.522 355.624 123.522 356.36ZM131.649 359.084C131.113 359.084 130.701 358.984 130.413 358.784C130.125 358.584 129.949 358.396 129.885 358.22H129.861C129.821 358.612 129.801 358.82 129.801 358.844C129.785 358.948 129.721 359 129.609 359H129.201C129.097 359 129.053 358.948 129.069 358.844L129.321 357.044C129.337 356.94 129.397 356.888 129.501 356.888H129.969C130.081 356.888 130.129 356.94 130.113 357.044L130.077 357.284C130.085 357.308 130.093 357.344 130.101 357.392C130.117 357.44 130.161 357.524 130.233 357.644C130.305 357.756 130.393 357.856 130.497 357.944C130.761 358.184 131.129 358.304 131.601 358.304C132.081 358.304 132.445 358.212 132.693 358.028C132.941 357.844 133.065 357.6 133.065 357.296C133.065 357.096 132.953 356.936 132.729 356.816C132.505 356.688 132.233 356.588 131.913 356.516C131.593 356.436 131.273 356.348 130.953 356.252C130.633 356.148 130.361 355.984 130.137 355.76C129.913 355.536 129.801 355.252 129.801 354.908C129.801 354.34 130.017 353.884 130.449 353.54C130.889 353.188 131.429 353.012 132.069 353.012C132.861 353.012 133.393 353.244 133.665 353.708H133.689C133.713 353.452 133.725 353.32 133.725 353.312C133.733 353.176 133.797 353.108 133.917 353.108H134.301C134.405 353.108 134.449 353.16 134.433 353.264L134.193 354.932C134.177 355.036 134.113 355.088 134.001 355.088H133.533C133.429 355.088 133.385 355.036 133.401 354.932L133.425 354.764C133.433 354.732 133.437 354.7 133.437 354.668C133.437 354.484 133.329 354.296 133.113 354.104C132.905 353.904 132.593 353.804 132.177 353.804C131.761 353.804 131.425 353.896 131.169 354.08C130.913 354.264 130.785 354.512 130.785 354.824C130.785 355.184 131.177 355.464 131.961 355.664C132.289 355.752 132.617 355.848 132.945 355.952C133.273 356.048 133.549 356.204 133.773 356.42C134.005 356.628 134.121 356.896 134.121 357.224C134.121 357.736 133.913 358.176 133.497 358.544C133.089 358.904 132.473 359.084 131.649 359.084ZM137.464 359.084C136.856 359.084 136.408 358.912 136.12 358.568C135.896 358.304 135.784 357.952 135.784 357.512C135.784 357.368 135.796 357.212 135.82 357.044L136.264 353.9H135.58C135.468 353.9 135.42 353.848 135.436 353.744L135.508 353.252C135.524 353.148 135.588 353.096 135.7 353.096H136.372L136.54 351.884C136.556 351.772 136.62 351.716 136.732 351.716H137.404C137.516 351.716 137.564 351.772 137.548 351.884L137.368 353.096H138.892C138.988 353.096 139.036 353.132 139.036 353.204C139.036 353.22 139.032 353.236 139.024 353.252L138.964 353.744C138.948 353.848 138.884 353.9 138.772 353.9H137.26L136.828 357.02C136.812 357.14 136.804 357.252 136.804 357.356C136.804 357.94 137.092 358.232 137.668 358.232C137.916 358.232 138.144 358.148 138.352 357.98C138.456 357.956 138.528 357.968 138.568 358.016L138.808 358.388C138.856 358.46 138.832 358.536 138.736 358.616C138.344 358.928 137.92 359.084 137.464 359.084ZM143.78 356.336H140.048C139.944 356.336 139.9 356.284 139.916 356.18L140 355.568C140.016 355.464 140.076 355.412 140.18 355.412H143.912C144.024 355.412 144.072 355.464 144.056 355.568L143.972 356.18C143.956 356.284 143.892 356.336 143.78 356.336ZM154.341 359H151.569C151.473 359 151.433 358.952 151.449 358.856L151.533 358.244C151.541 358.148 151.597 358.1 151.701 358.1H152.505L153.345 352.124H153.333L150.261 357.788C150.125 358.028 149.929 358.148 149.673 358.148C149.417 358.148 149.261 358.028 149.205 357.788L147.717 352.124H147.693L146.853 358.1H147.657C147.753 358.1 147.797 358.148 147.789 358.244L147.705 358.856C147.689 358.952 147.629 359 147.525 359H144.765C144.661 359 144.617 358.952 144.633 358.856L144.717 358.244C144.725 358.148 144.781 358.1 144.885 358.1H145.809L146.769 351.284H145.845C145.757 351.284 145.717 351.236 145.725 351.14L145.809 350.528C145.825 350.432 145.881 350.384 145.977 350.384H147.825C148.089 350.384 148.261 350.52 148.341 350.792L149.517 355.112L149.877 356.624H149.913C150.225 356 150.481 355.504 150.681 355.136L153.081 350.792C153.225 350.52 153.437 350.384 153.717 350.384H155.553C155.649 350.384 155.693 350.432 155.685 350.528L155.601 351.14C155.585 351.236 155.525 351.284 155.421 351.284H154.509L153.549 358.1H154.473C154.577 358.1 154.617 358.148 154.593 358.244L154.509 358.856C154.501 358.952 154.445 359 154.341 359ZM162.298 359H155.734C155.63 359 155.586 358.952 155.602 358.856L155.686 358.244C155.694 358.148 155.75 358.1 155.854 358.1H156.778L157.738 351.284H156.814C156.726 351.284 156.686 351.236 156.694 351.14L156.778 350.528C156.794 350.432 156.85 350.384 156.946 350.384H159.814C159.926 350.384 159.974 350.436 159.958 350.54L159.874 351.128C159.858 351.232 159.798 351.284 159.694 351.284H158.782L157.822 358.1H161.638L161.806 356.924C161.814 356.828 161.87 356.78 161.974 356.78H162.634C162.73 356.78 162.77 356.828 162.754 356.924L162.49 358.844C162.474 358.948 162.41 359 162.298 359ZM166.436 359H163.304C163.2 359 163.156 358.952 163.172 358.856L163.256 358.244C163.264 358.148 163.32 358.1 163.424 358.1H164.348L165.308 351.284H164.384C164.296 351.284 164.256 351.236 164.264 351.14L164.348 350.528C164.364 350.432 164.42 350.384 164.516 350.384H168.212C168.972 350.384 169.584 350.596 170.048 351.02C170.52 351.444 170.756 352.02 170.756 352.748C170.756 353.676 170.452 354.408 169.844 354.944C169.236 355.48 168.4 355.748 167.336 355.748H165.728L165.392 358.1H166.556C166.652 358.1 166.696 358.148 166.688 358.244L166.604 358.856C166.588 358.952 166.532 359 166.436 359ZM167.408 354.896C168.136 354.896 168.7 354.728 169.1 354.392C169.5 354.048 169.7 353.532 169.7 352.844C169.7 352.324 169.532 351.936 169.196 351.68C168.86 351.416 168.432 351.284 167.912 351.284H166.352L165.848 354.896H167.408ZM181.144 359H180.436C180.268 359 180.184 358.916 180.184 358.748L179.74 354.728H179.704L178.12 358.748C178.064 358.916 177.952 359 177.784 359H177.088C176.944 359 176.86 358.916 176.836 358.748L175.936 353.9H175.264C175.168 353.9 175.124 353.852 175.132 353.756L175.216 353.24C175.232 353.144 175.284 353.096 175.372 353.096H177.616C177.712 353.096 177.752 353.144 177.736 353.24L177.664 353.756C177.648 353.852 177.592 353.9 177.496 353.9H176.944L177.592 357.944H177.616L179.236 353.9H178.78C178.676 353.9 178.632 353.852 178.648 353.756L178.732 353.24C178.74 353.144 178.792 353.096 178.888 353.096H181C181.096 353.096 181.14 353.144 181.132 353.24L181.048 353.756C181.032 353.852 180.976 353.9 180.88 353.9H180.412L180.916 357.944H180.94L182.692 353.9H182.152C182.056 353.9 182.016 353.852 182.032 353.756L182.104 353.24C182.12 353.144 182.176 353.096 182.272 353.096H184.504C184.6 353.096 184.644 353.144 184.636 353.24L184.564 353.756C184.556 353.852 184.496 353.9 184.384 353.9H183.736L181.468 358.748C181.396 358.916 181.288 359 181.144 359ZM186.875 359H184.583C184.479 359 184.435 358.952 184.451 358.856L184.535 358.34C184.543 358.244 184.595 358.196 184.691 358.196H185.363L185.975 353.9H185.303C185.199 353.9 185.155 353.852 185.171 353.756L185.243 353.24C185.259 353.144 185.315 353.096 185.411 353.096H186.923C187.019 353.096 187.063 353.144 187.055 353.24L186.359 358.196H186.995C187.091 358.196 187.135 358.244 187.127 358.34L187.055 358.856C187.047 358.952 186.987 359 186.875 359ZM186.803 351.116C186.995 351.116 187.147 351.176 187.259 351.296C187.371 351.408 187.427 351.556 187.427 351.74C187.427 351.924 187.347 352.092 187.187 352.244C187.027 352.388 186.855 352.46 186.671 352.46C186.487 352.46 186.339 352.404 186.227 352.292C186.123 352.18 186.071 352.032 186.071 351.848C186.071 351.664 186.147 351.496 186.299 351.344C186.451 351.192 186.619 351.116 186.803 351.116ZM190.62 359.084C190.012 359.084 189.564 358.912 189.276 358.568C189.052 358.304 188.94 357.952 188.94 357.512C188.94 357.368 188.952 357.212 188.976 357.044L189.42 353.9H188.736C188.624 353.9 188.576 353.848 188.592 353.744L188.664 353.252C188.68 353.148 188.744 353.096 188.856 353.096H189.528L189.696 351.884C189.712 351.772 189.776 351.716 189.888 351.716H190.56C190.672 351.716 190.72 351.772 190.704 351.884L190.524 353.096H192.048C192.144 353.096 192.192 353.132 192.192 353.204C192.192 353.22 192.188 353.236 192.18 353.252L192.12 353.744C192.104 353.848 192.04 353.9 191.928 353.9H190.416L189.984 357.02C189.968 357.14 189.96 357.252 189.96 357.356C189.96 357.94 190.248 358.232 190.824 358.232C191.072 358.232 191.3 358.148 191.508 357.98C191.612 357.956 191.684 357.968 191.724 358.016L191.964 358.388C192.012 358.46 191.988 358.536 191.892 358.616C191.5 358.928 191.076 359.084 190.62 359.084ZM198.955 359H197.815C197.511 359 197.359 358.876 197.359 358.628C197.359 358.588 197.363 358.544 197.371 358.496L197.803 355.34C197.819 355.22 197.827 355.108 197.827 355.004C197.827 354.7 197.763 354.456 197.635 354.272C197.451 354.008 197.151 353.876 196.735 353.876C196.287 353.876 195.867 354.112 195.475 354.584C195.211 354.92 195.003 355.288 194.851 355.688L194.503 358.196H195.139C195.235 358.196 195.279 358.244 195.271 358.34L195.199 358.856C195.191 358.952 195.131 359 195.019 359H192.727C192.623 359 192.579 358.952 192.595 358.856L192.679 358.34C192.687 358.244 192.739 358.196 192.835 358.196H193.507L194.491 351.188H193.831C193.719 351.188 193.675 351.14 193.699 351.044L193.771 350.528C193.787 350.432 193.843 350.384 193.939 350.384H195.451C195.547 350.384 195.591 350.432 195.583 350.528L195.199 353.252C195.159 353.508 195.107 353.784 195.043 354.08C194.987 354.376 194.959 354.532 194.959 354.548H194.983C195.007 354.444 195.083 354.284 195.211 354.068C195.339 353.852 195.471 353.68 195.607 353.552C195.751 353.416 195.951 353.292 196.207 353.18C196.471 353.068 196.759 353.012 197.071 353.012C197.711 353.012 198.187 353.2 198.499 353.576C198.739 353.872 198.859 354.244 198.859 354.692C198.859 354.82 198.851 354.956 198.835 355.1L198.403 358.196H199.075C199.171 358.196 199.215 358.244 199.207 358.34L199.135 358.856C199.127 358.952 199.067 359 198.955 359ZM129.938 374H126.806C126.702 374 126.658 373.952 126.674 373.856L126.758 373.244C126.766 373.148 126.822 373.1 126.926 373.1H127.85L128.81 366.284H127.886C127.798 366.284 127.758 366.236 127.766 366.14L127.85 365.528C127.866 365.432 127.922 365.384 128.018 365.384H131.714C132.474 365.384 133.086 365.596 133.55 366.02C134.022 366.444 134.258 367.02 134.258 367.748C134.258 368.676 133.954 369.408 133.346 369.944C132.738 370.48 131.902 370.748 130.838 370.748H129.23L128.894 373.1H130.058C130.154 373.1 130.198 373.148 130.19 373.244L130.106 373.856C130.09 373.952 130.034 374 129.938 374ZM130.91 369.896C131.638 369.896 132.202 369.728 132.602 369.392C133.002 369.048 133.202 368.532 133.202 367.844C133.202 367.324 133.034 366.936 132.698 366.68C132.362 366.416 131.934 366.284 131.414 366.284H129.854L129.35 369.896H130.91ZM136.748 374.084C135.98 374.084 135.356 373.848 134.876 373.376C134.396 372.896 134.156 372.256 134.156 371.456C134.156 370.424 134.492 369.592 135.164 368.96C135.844 368.328 136.66 368.012 137.612 368.012C138.38 368.012 139.004 368.248 139.484 368.72C139.964 369.184 140.204 369.812 140.204 370.604C140.204 371.628 139.872 372.464 139.208 373.112C138.544 373.76 137.724 374.084 136.748 374.084ZM135.164 371.36C135.164 371.928 135.324 372.384 135.644 372.728C135.972 373.072 136.408 373.244 136.952 373.244C137.504 373.244 138.016 373.008 138.488 372.536C138.96 372.056 139.196 371.448 139.196 370.712C139.196 370.152 139.032 369.704 138.704 369.368C138.376 369.024 137.972 368.852 137.492 368.852C136.884 368.852 136.344 369.088 135.872 369.56C135.4 370.024 135.164 370.624 135.164 371.36ZM143.292 374.084C142.756 374.084 142.344 373.984 142.056 373.784C141.768 373.584 141.592 373.396 141.528 373.22H141.504C141.464 373.612 141.444 373.82 141.444 373.844C141.428 373.948 141.364 374 141.252 374H140.844C140.74 374 140.696 373.948 140.712 373.844L140.964 372.044C140.98 371.94 141.04 371.888 141.144 371.888H141.612C141.724 371.888 141.772 371.94 141.756 372.044L141.72 372.284C141.728 372.308 141.736 372.344 141.744 372.392C141.76 372.44 141.804 372.524 141.876 372.644C141.948 372.756 142.036 372.856 142.14 372.944C142.404 373.184 142.772 373.304 143.244 373.304C143.724 373.304 144.088 373.212 144.336 373.028C144.584 372.844 144.708 372.6 144.708 372.296C144.708 372.096 144.596 371.936 144.372 371.816C144.148 371.688 143.876 371.588 143.556 371.516C143.236 371.436 142.916 371.348 142.596 371.252C142.276 371.148 142.004 370.984 141.78 370.76C141.556 370.536 141.444 370.252 141.444 369.908C141.444 369.34 141.66 368.884 142.092 368.54C142.532 368.188 143.072 368.012 143.712 368.012C144.504 368.012 145.036 368.244 145.308 368.708H145.332C145.356 368.452 145.368 368.32 145.368 368.312C145.376 368.176 145.44 368.108 145.56 368.108H145.944C146.048 368.108 146.092 368.16 146.076 368.264L145.836 369.932C145.82 370.036 145.756 370.088 145.644 370.088H145.176C145.072 370.088 145.028 370.036 145.044 369.932L145.068 369.764C145.076 369.732 145.08 369.7 145.08 369.668C145.08 369.484 144.972 369.296 144.756 369.104C144.548 368.904 144.236 368.804 143.82 368.804C143.404 368.804 143.068 368.896 142.812 369.08C142.556 369.264 142.428 369.512 142.428 369.824C142.428 370.184 142.82 370.464 143.604 370.664C143.932 370.752 144.26 370.848 144.588 370.952C144.916 371.048 145.192 371.204 145.416 371.42C145.648 371.628 145.764 371.896 145.764 372.224C145.764 372.736 145.556 373.176 145.14 373.544C144.732 373.904 144.116 374.084 143.292 374.084ZM149.107 374.084C148.499 374.084 148.051 373.912 147.763 373.568C147.539 373.304 147.427 372.952 147.427 372.512C147.427 372.368 147.439 372.212 147.463 372.044L147.907 368.9H147.223C147.111 368.9 147.063 368.848 147.079 368.744L147.151 368.252C147.167 368.148 147.231 368.096 147.343 368.096H148.015L148.183 366.884C148.199 366.772 148.263 366.716 148.375 366.716H149.047C149.159 366.716 149.207 366.772 149.191 366.884L149.011 368.096H150.535C150.631 368.096 150.679 368.132 150.679 368.204C150.679 368.22 150.675 368.236 150.667 368.252L150.607 368.744C150.591 368.848 150.527 368.9 150.415 368.9H148.903L148.471 372.02C148.455 372.14 148.447 372.252 148.447 372.356C148.447 372.94 148.735 373.232 149.311 373.232C149.559 373.232 149.787 373.148 149.995 372.98C150.099 372.956 150.171 372.968 150.211 373.016L150.451 373.388C150.499 373.46 150.475 373.536 150.379 373.616C149.987 373.928 149.563 374.084 149.107 374.084ZM155.423 371.336H151.691C151.587 371.336 151.543 371.284 151.559 371.18L151.643 370.568C151.659 370.464 151.719 370.412 151.823 370.412H155.555C155.667 370.412 155.715 370.464 155.699 370.568L155.615 371.18C155.599 371.284 155.535 371.336 155.423 371.336ZM160.284 374H156.408C156.304 374 156.26 373.952 156.276 373.856L156.36 373.244C156.368 373.148 156.424 373.1 156.528 373.1H157.452L158.412 366.284H157.488C157.4 366.284 157.36 366.236 157.368 366.14L157.452 365.528C157.468 365.432 157.524 365.384 157.62 365.384H161.484C162.204 365.384 162.756 365.564 163.14 365.924C163.532 366.284 163.728 366.76 163.728 367.352C163.728 368.312 163.28 369.028 162.384 369.5C163.232 369.764 163.656 370.328 163.656 371.192C163.656 372.048 163.376 372.732 162.816 373.244C162.264 373.748 161.42 374 160.284 374ZM160.32 373.1C160.984 373.1 161.528 372.944 161.952 372.632C162.384 372.32 162.6 371.856 162.6 371.24C162.6 370.384 162.016 369.956 160.848 369.956H158.94L158.496 373.1H160.32ZM160.872 369.164C161.336 369.164 161.748 369.028 162.108 368.756C162.468 368.484 162.648 368.1 162.648 367.604C162.648 367.108 162.504 366.764 162.216 366.572C161.936 366.38 161.584 366.284 161.16 366.284H159.456L159.048 369.164H160.872ZM166.748 374H164.456C164.352 374 164.308 373.952 164.324 373.856L164.408 373.34C164.416 373.244 164.468 373.196 164.564 373.196H165.236L166.232 366.188H165.56C165.448 366.188 165.404 366.14 165.428 366.044L165.5 365.528C165.516 365.432 165.572 365.384 165.668 365.384H167C167.2 365.384 167.3 365.46 167.3 365.612C167.3 365.636 167.296 365.66 167.288 365.684L166.232 373.196H166.868C166.964 373.196 167.008 373.244 167 373.34L166.928 373.856C166.92 373.952 166.86 374 166.748 374ZM170.721 374.084C169.953 374.084 169.329 373.848 168.849 373.376C168.369 372.896 168.129 372.256 168.129 371.456C168.129 370.424 168.465 369.592 169.137 368.96C169.817 368.328 170.633 368.012 171.585 368.012C172.353 368.012 172.977 368.248 173.457 368.72C173.937 369.184 174.177 369.812 174.177 370.604C174.177 371.628 173.845 372.464 173.181 373.112C172.517 373.76 171.697 374.084 170.721 374.084ZM169.137 371.36C169.137 371.928 169.297 372.384 169.617 372.728C169.945 373.072 170.381 373.244 170.925 373.244C171.477 373.244 171.989 373.008 172.461 372.536C172.933 372.056 173.169 371.448 173.169 370.712C173.169 370.152 173.005 369.704 172.677 369.368C172.349 369.024 171.945 368.852 171.465 368.852C170.857 368.852 170.317 369.088 169.845 369.56C169.373 370.024 169.137 370.624 169.137 371.36ZM177.541 374.084C176.781 374.084 176.161 373.852 175.681 373.388C175.209 372.916 174.973 372.276 174.973 371.468C174.973 370.42 175.309 369.584 175.981 368.96C176.653 368.328 177.417 368.012 178.273 368.012C179.137 368.012 179.737 368.308 180.073 368.9H180.085L180.169 368.24C180.185 368.136 180.241 368.084 180.337 368.084H180.793C180.897 368.084 180.941 368.136 180.925 368.24L180.637 370.28C180.621 370.376 180.565 370.424 180.469 370.424H179.929C179.825 370.424 179.781 370.376 179.797 370.28L179.821 370.076C179.829 370.044 179.833 370.008 179.833 369.968C179.833 369.72 179.697 369.472 179.425 369.224C179.161 368.976 178.765 368.852 178.237 368.852C177.717 368.852 177.213 369.08 176.725 369.536C176.237 369.984 175.993 370.588 175.993 371.348C175.993 371.932 176.161 372.396 176.497 372.74C176.833 373.076 177.225 373.244 177.673 373.244C178.121 373.244 178.545 373.136 178.945 372.92C179.345 372.696 179.613 372.492 179.749 372.308C179.821 372.22 179.893 372.208 179.965 372.272L180.253 372.608C180.325 372.68 180.325 372.76 180.253 372.848C180.189 372.928 180.097 373.028 179.977 373.148C179.857 373.26 179.685 373.392 179.461 373.544C178.949 373.904 178.309 374.084 177.541 374.084ZM187.395 374H186.747C186.515 374 186.323 373.876 186.171 373.628L184.443 370.748L183.135 371.828L182.943 373.196H183.579C183.675 373.196 183.719 373.244 183.711 373.34L183.639 373.856C183.631 373.952 183.571 374 183.459 374H181.167C181.063 374 181.019 373.952 181.035 373.856L181.119 373.34C181.127 373.244 181.179 373.196 181.275 373.196H181.947L182.931 366.188H182.271C182.159 366.188 182.115 366.14 182.139 366.044L182.211 365.528C182.227 365.432 182.283 365.384 182.379 365.384H183.891C183.987 365.384 184.031 365.432 184.023 365.528L183.267 370.904L185.739 368.9H185.295C185.191 368.9 185.147 368.852 185.163 368.756L185.235 368.24C185.259 368.144 185.319 368.096 185.415 368.096H187.719C187.807 368.096 187.847 368.144 187.839 368.24L187.767 368.756C187.759 368.852 187.703 368.9 187.599 368.9H186.819L185.175 370.184L186.987 373.196H187.515C187.611 373.196 187.655 373.244 187.647 373.34L187.563 373.856C187.547 373.952 187.491 374 187.395 374Z" fill="black"/>
<path d="M81.0324 113.473L80.5247 113.856C80.4417 113.919 80.3712 113.912 80.3134 113.835L79.8243 113.167C79.6863 114.153 79.148 115 78.2093 115.709C77.2769 116.412 76.2521 116.674 75.1348 116.495C74.0174 116.316 73.0588 115.697 72.2589 114.637C71.724 113.928 71.4107 113.187 71.3188 112.414C71.2333 111.637 71.3345 110.934 71.6223 110.306C71.9164 109.674 72.3477 109.143 72.916 108.714C73.8931 107.977 74.8244 107.75 75.71 108.034L75.1439 107.303C75.0733 107.236 75.0827 107.169 75.1721 107.102L75.7085 106.697C75.7916 106.634 75.862 106.641 75.9198 106.718L77.4088 108.691C77.4666 108.768 77.454 108.837 77.371 108.9L76.7675 109.355C76.6909 109.413 76.6236 109.404 76.5658 109.327L76.4791 109.212C76.2671 108.931 75.8627 108.8 75.2659 108.82C74.6756 108.834 74.0803 109.068 73.48 109.521C72.8797 109.974 72.5248 110.633 72.4153 111.497C72.3074 112.35 72.5667 113.192 73.1931 114.022C73.8147 114.846 74.5513 115.317 75.4029 115.436C76.2496 115.549 76.9731 115.379 77.5734 114.926C78.1737 114.473 78.5739 114.02 78.7742 113.569C78.9809 113.112 79.0717 112.688 79.0465 112.296L78.4827 111.549L76.701 112.893C76.6244 112.951 76.5548 112.938 76.4921 112.855L76.1596 112.415C76.1018 112.338 76.1112 112.271 76.1879 112.213L78.6688 110.341C78.7454 110.283 78.8127 110.293 78.8705 110.369L81.0606 113.272C81.1184 113.348 81.109 113.415 81.0324 113.473ZM87.4685 108.617L82.2288 112.57C82.1458 112.633 82.0754 112.626 82.0176 112.549L81.6489 112.061C81.5911 111.984 81.6037 111.915 81.6867 111.852L82.4147 111.303L78.3092 105.862L77.5812 106.411C77.4982 106.474 77.4278 106.467 77.3699 106.39L77.0013 105.902C76.9435 105.825 76.9561 105.755 77.0391 105.693L79.3285 103.965C79.4115 103.903 79.4843 103.913 79.547 103.996L79.9011 104.465C79.9638 104.548 79.9536 104.621 79.8706 104.684L79.1426 105.233L83.2481 110.674L86.2942 108.375L85.5858 107.437C85.528 107.36 85.5406 107.29 85.6236 107.228L86.1409 106.837C86.2175 106.78 86.2848 106.789 86.3426 106.866L87.4991 108.398C87.5617 108.481 87.5515 108.554 87.4685 108.617ZM90.8424 102.162L88.074 98.4936L87.3365 99.0502C87.2598 99.108 87.1926 99.0986 87.1348 99.022L86.7661 98.5334C86.7083 98.4568 86.7177 98.3896 86.7944 98.3317L89.1029 96.5898C89.1795 96.532 89.2467 96.5414 89.3046 96.618L89.6732 97.1065C89.731 97.1832 89.7216 97.2504 89.645 97.3082L88.9074 97.8648L91.6107 101.447C92.2612 102.309 92.5308 103.138 92.4195 103.934C92.3098 104.718 91.8431 105.421 91.0193 106.043C90.2019 106.659 89.3978 106.915 88.6071 106.81C87.8116 106.699 87.0886 106.213 86.4381 105.35L83.7348 101.768L83.0068 102.317C82.9238 102.38 82.8533 102.373 82.7955 102.296L82.4269 101.808C82.3691 101.731 82.3817 101.661 82.4647 101.599L84.7636 99.8641C84.8466 99.8014 84.9171 99.8084 84.9749 99.8851L85.3435 100.374C85.4013 100.45 85.3887 100.52 85.3057 100.583L84.5681 101.139L87.2931 104.75C88.2183 105.976 89.2684 106.146 90.4434 105.26C91.0437 104.807 91.3663 104.318 91.4111 103.793C91.4512 103.261 91.2616 102.718 90.8424 102.162ZM98.4591 100.354L98.8277 100.842C98.8903 100.925 98.8801 100.998 98.7971 101.061C98.0244 101.644 97.0906 101.847 95.9957 101.671C95.4594 101.585 94.9012 101.35 94.3208 100.966C93.7357 100.575 93.195 100.051 92.6986 99.3936C92.2023 98.7359 91.8516 98.0785 91.6465 97.4215C91.4365 96.7581 91.3636 96.1567 91.4276 95.6173C91.5572 94.5274 92.0116 93.6884 92.7906 93.1005C92.8737 93.0379 92.9465 93.0481 93.0091 93.1311L93.3778 93.6196C93.4404 93.7027 93.4302 93.7755 93.3472 93.8381C92.8044 94.2477 92.4943 94.8926 92.4169 95.7729C92.3749 96.1954 92.4475 96.6768 92.6347 97.217C92.817 97.7509 93.113 98.2892 93.5226 98.832C93.9274 99.3685 94.3638 99.8008 94.832 100.129C95.3017 100.446 95.7431 100.639 96.1561 100.708C97.0029 100.861 97.6978 100.733 98.2406 100.323C98.3236 100.26 98.3964 100.271 98.4591 100.354ZM104.195 95.9953L103.285 96.682C103.01 96.8892 102.772 96.8587 102.57 96.5905L100.669 94.0712C100.389 93.7009 100.083 93.4809 99.7499 93.4115C99.4169 93.3421 99.0779 93.4375 98.7331 93.6977C98.4713 93.8953 98.3014 94.0886 98.2236 94.2776C98.1473 94.4554 98.0981 94.6027 98.0761 94.7196C98.0492 94.8301 98.0351 94.9309 98.0338 95.0221C98.0342 95.1821 98.0499 95.3357 98.0807 95.4828L100.061 98.1074L100.569 97.7243C100.652 97.6617 100.722 97.6687 100.78 97.7453L101.091 98.1572C101.149 98.2339 101.136 98.3035 101.053 98.3661L99.2236 99.7467C99.1405 99.8093 99.0701 99.8023 99.0123 99.7257L98.7015 99.3138C98.6437 99.2372 98.6563 99.1675 98.7393 99.1049L99.2661 98.7074L95.045 93.1133L94.5181 93.5108C94.4351 93.5734 94.3647 93.5664 94.3069 93.4898L93.9961 93.0779C93.9382 93.0013 93.9508 92.9317 94.0339 92.869L95.2408 91.9583C95.3174 91.9005 95.3847 91.9099 95.4425 91.9865L97.0543 94.1226C97.2133 94.3333 97.3475 94.5377 97.4569 94.7358L97.4761 94.7214C97.418 93.9935 97.7305 93.3718 98.4138 92.8562C98.9247 92.4707 99.4371 92.3196 99.9509 92.4029C100.465 92.4862 100.918 92.7809 101.31 93.287L103.174 95.7583L103.711 95.3536C103.794 95.2909 103.864 95.2979 103.922 95.3745L104.233 95.7864C104.291 95.8631 104.278 95.9327 104.195 95.9953ZM109.206 90.771L108.65 91.1902C108.574 91.248 108.504 91.2354 108.442 91.1524L107.668 90.1275L106.624 90.9153C106.535 90.9828 106.459 90.975 106.396 90.892L106.027 90.4035C105.965 90.3204 105.978 90.2452 106.068 90.1777L107.112 89.3899L106.317 88.3362C106.259 88.2596 106.268 88.1923 106.345 88.1345L106.9 87.7153C106.977 87.6575 107.044 87.6669 107.102 87.7435L107.897 88.7972L108.912 88.031C108.995 87.9684 109.068 87.9786 109.131 88.0616L109.5 88.5501C109.562 88.6331 109.552 88.706 109.469 88.7686L108.454 89.5348L109.227 90.5597C109.29 90.6427 109.283 90.7132 109.206 90.771ZM121.891 82.6422L119.726 84.2757C119.65 84.3336 119.583 84.3242 119.525 84.2475L119.156 83.759C119.098 83.6824 119.108 83.6152 119.184 83.5573L119.855 83.0514L117.982 81.864L115.309 83.8806L115.937 86.0076L116.608 85.5017C116.684 85.4438 116.751 85.4532 116.809 85.5299L117.178 86.0184C117.236 86.095 117.226 86.1623 117.15 86.2201L114.994 87.8464C114.918 87.9042 114.851 87.8948 114.793 87.8182L114.424 87.3296C114.366 87.253 114.376 87.1858 114.452 87.128L115.094 86.6437L113.048 79.6488L112.531 80.0391C112.448 80.1018 112.377 80.0948 112.32 80.0182L111.951 79.5296C111.893 79.453 111.906 79.3834 111.989 79.3207L113.291 78.3377C113.445 78.2221 113.584 78.1673 113.709 78.1733C113.84 78.1745 113.99 78.2269 114.158 78.3304L120.698 82.4153L121.349 81.9238C121.426 81.866 121.493 81.8754 121.551 81.952L121.919 82.4405C121.977 82.5172 121.968 82.5844 121.891 82.6422ZM117.224 81.3982L114.014 79.3556L113.986 79.3773L115.06 83.0318L117.224 81.3982ZM124.811 79.6726C124.856 79.6789 124.89 79.698 124.914 79.7299C124.933 79.7555 124.938 79.8018 124.929 79.8691C124.836 80.3301 124.575 80.7221 124.147 81.045C123.726 81.363 123.274 81.4883 122.793 81.4209C122.312 81.3423 121.872 81.038 121.472 80.508L119.579 77.9983L119.042 78.4031C118.953 78.4705 118.877 78.4627 118.814 78.3797L118.518 77.987C118.455 77.904 118.468 77.8287 118.558 77.7613L119.094 77.3565L118.364 76.389C118.297 76.2996 118.308 76.2212 118.397 76.1537L118.934 75.749C119.017 75.6863 119.092 75.6997 119.159 75.7891L119.889 76.7566L121.106 75.8386C121.195 75.7712 121.271 75.7789 121.334 75.862L121.63 76.2547C121.693 76.3377 121.68 76.413 121.59 76.4804L120.374 77.3984L122.253 79.8889C122.494 80.2082 122.747 80.3979 123.013 80.4579C123.28 80.5067 123.532 80.442 123.768 80.2637C124.011 80.0806 124.147 79.8826 124.177 79.6697C124.198 79.564 124.257 79.5238 124.357 79.5491L124.811 79.6726ZM128.384 76.9762C128.429 76.9825 128.463 77.0016 128.487 77.0335C128.507 77.0591 128.512 77.1055 128.502 77.1727C128.409 77.6338 128.149 78.0257 127.721 78.3486C127.299 78.6666 126.848 78.7919 126.366 78.7245C125.886 78.6459 125.446 78.3416 125.046 77.8116L123.152 75.3019L122.616 75.7067C122.526 75.7741 122.45 75.7664 122.387 75.6833L122.091 75.2906C122.028 75.2076 122.042 75.1324 122.131 75.0649L122.668 74.6601L121.938 73.6926C121.87 73.6032 121.881 73.5248 121.971 73.4574L122.507 73.0526C122.59 72.9899 122.665 73.0033 122.733 73.0927L123.463 74.0602L124.679 73.1422C124.769 73.0748 124.845 73.0826 124.907 73.1656L125.204 73.5583C125.266 73.6413 125.253 73.7166 125.164 73.784L123.947 74.702L125.826 77.1925C126.067 77.5118 126.321 77.7015 126.586 77.7615C126.854 77.8103 127.106 77.7456 127.342 77.5673C127.584 77.3842 127.721 77.1862 127.75 76.9733C127.771 76.8676 127.831 76.8274 127.93 76.8528L128.384 76.9762ZM134.419 73.189L133.509 73.8757C133.235 74.0829 132.996 74.0524 132.794 73.7841L130.893 71.2649C130.613 70.8945 130.307 70.6746 129.974 70.6052C129.641 70.5357 129.302 70.6311 128.957 70.8913C128.466 71.2624 128.234 71.7527 128.263 72.3622C128.26 72.4246 128.272 72.5261 128.298 72.6669L130.285 75.3011L130.793 74.918C130.876 74.8554 130.946 74.8623 131.004 74.939L131.315 75.3509C131.373 75.4275 131.36 75.4971 131.277 75.5598L129.448 76.9403C129.365 77.003 129.294 76.996 129.236 76.9193L128.926 76.5075C128.868 76.4308 128.88 76.3612 128.963 76.2985L129.49 75.901L126.903 72.4717L126.376 72.8693C126.293 72.9319 126.222 72.9249 126.165 72.8483L125.854 72.4364C125.796 72.3598 125.809 72.2901 125.892 72.2275L127.012 71.3818C127.095 71.3192 127.166 71.3262 127.224 71.4028L127.696 72.0686L127.725 72.0469C127.637 71.2408 127.942 70.5751 128.638 70.0499C129.149 69.6644 129.661 69.5133 130.175 69.5966C130.689 69.6799 131.142 69.9746 131.534 70.4806L133.398 72.952L133.935 72.5472C134.018 72.4846 134.088 72.4916 134.146 72.5682L134.457 72.9801C134.515 73.0567 134.502 73.1264 134.419 73.189ZM138.496 70.1428L138.865 70.6313C138.927 70.7143 138.917 70.7872 138.834 70.8498C138.061 71.4329 137.128 71.6364 136.033 71.4604C135.496 71.374 134.938 71.1388 134.358 70.7549C133.773 70.3646 133.232 69.8406 132.736 69.1828C132.239 68.5251 131.889 67.8677 131.683 67.2107C131.473 66.5473 131.4 65.9459 131.465 65.4065C131.594 64.3165 132.048 63.4776 132.828 62.8897C132.911 62.8271 132.983 62.8373 133.046 62.9203L133.415 63.4088C133.477 63.4918 133.467 63.5647 133.384 63.6273C132.841 64.0369 132.531 64.6818 132.454 65.562C132.412 65.9846 132.484 66.4659 132.672 67.0062C132.854 67.5401 133.15 68.0784 133.56 68.6212C133.964 69.1576 134.401 69.59 134.869 69.9182C135.339 70.2352 135.78 70.4283 136.193 70.4975C137.04 70.6503 137.735 70.5218 138.277 70.1122C138.361 70.0496 138.433 70.0598 138.496 70.1428ZM144.232 65.7845L143.322 66.4712C143.047 66.6784 142.809 66.6479 142.606 66.3797L140.706 63.8604C140.426 63.49 140.12 63.2701 139.787 63.2007C139.454 63.1313 139.115 63.2267 138.77 63.4869C138.508 63.6844 138.338 63.8777 138.261 64.0668C138.184 64.2446 138.135 64.3919 138.113 64.5088C138.086 64.6193 138.072 64.7201 138.071 64.8113C138.071 64.9713 138.087 65.1249 138.118 65.272L140.098 67.8966L140.606 67.5135C140.689 67.4509 140.759 67.4579 140.817 67.5345L141.128 67.9464C141.186 68.023 141.173 68.0927 141.09 68.1553L139.26 69.5359C139.177 69.5985 139.107 69.5915 139.049 69.5149L138.738 69.103C138.681 69.0263 138.693 68.9567 138.776 68.8941L139.303 68.4965L135.082 62.9024L134.555 63.3C134.472 63.3626 134.402 63.3556 134.344 63.279L134.033 62.8671C133.975 62.7905 133.988 62.7208 134.071 62.6582L135.278 61.7475C135.354 61.6896 135.422 61.699 135.479 61.7757L137.091 63.9118C137.25 64.1225 137.384 64.3269 137.494 64.525L137.513 64.5105C137.455 63.7827 137.767 63.161 138.451 62.6454C138.962 62.2599 139.474 62.1088 139.988 62.1921C140.502 62.2754 140.955 62.5701 141.346 63.0761L143.211 65.5475L143.748 65.1427C143.831 65.0801 143.901 65.0871 143.959 65.1637L144.27 65.5756C144.328 65.6522 144.315 65.7219 144.232 65.7845ZM145.113 65.9165L144.752 65.4375C144.684 65.3481 144.695 65.2697 144.785 65.2022C145.334 64.7878 145.65 64.1581 145.734 63.313C145.776 62.8905 145.706 62.4123 145.524 61.8784C145.348 61.3398 145.057 60.8022 144.652 60.2658C144.243 59.723 143.806 59.2906 143.343 58.9688C142.875 58.6406 142.43 58.4355 142.007 58.3535C141.144 58.1928 140.441 58.3173 139.898 58.7269C139.809 58.7943 139.733 58.7865 139.67 58.7035L139.302 58.215C139.239 58.132 139.252 58.0567 139.342 57.9893C140.108 57.411 141.034 57.2035 142.119 57.3668C142.662 57.4484 143.22 57.6836 143.794 58.0723C144.374 58.4562 144.913 58.977 145.409 59.6348C145.905 60.2925 146.261 60.9563 146.476 61.6261C146.692 62.2846 146.765 62.886 146.695 63.4302C146.563 64.5314 146.115 65.3711 145.348 65.9494C145.259 66.0168 145.18 66.0059 145.113 65.9165ZM149.061 62.9377L148.699 62.4588C148.632 62.3694 148.643 62.2909 148.732 62.2235C149.281 61.8091 149.598 61.1794 149.682 60.3343C149.724 59.9118 149.654 59.4336 149.471 58.8997C149.295 58.361 149.005 57.8235 148.6 57.287C148.19 56.7442 147.754 56.3119 147.291 55.9901C146.822 55.6618 146.377 55.4567 145.954 55.3748C145.092 55.2141 144.389 55.3385 143.846 55.7481C143.757 55.8156 143.681 55.8078 143.618 55.7248L143.249 55.2363C143.187 55.1533 143.2 55.078 143.289 55.0106C144.056 54.4323 144.981 54.2248 146.067 54.388C146.609 54.4697 147.168 54.7048 147.742 55.0935C148.322 55.4775 148.86 55.9983 149.357 56.656C149.853 57.3138 150.208 57.9776 150.423 58.6473C150.64 59.3059 150.713 59.9073 150.642 60.4515C150.511 61.5527 150.062 62.3924 149.296 62.9706C149.206 63.0381 149.128 63.0271 149.061 62.9377Z" fill="black"/>
<path d="M344.032 113.473L343.525 113.856C343.442 113.919 343.371 113.912 343.313 113.835L342.824 113.167C342.686 114.153 342.148 115 341.209 115.709C340.277 116.412 339.252 116.674 338.135 116.495C337.017 116.316 336.059 115.697 335.259 114.637C334.724 113.928 334.411 113.187 334.319 112.414C334.233 111.637 334.334 110.934 334.622 110.306C334.916 109.674 335.348 109.143 335.916 108.714C336.893 107.977 337.824 107.75 338.71 108.034L338.144 107.303C338.073 107.236 338.083 107.169 338.172 107.102L338.709 106.697C338.792 106.634 338.862 106.641 338.92 106.718L340.409 108.691C340.467 108.768 340.454 108.837 340.371 108.9L339.768 109.355C339.691 109.413 339.624 109.404 339.566 109.327L339.479 109.212C339.267 108.931 338.863 108.8 338.266 108.82C337.676 108.834 337.08 109.068 336.48 109.521C335.88 109.974 335.525 110.633 335.415 111.497C335.307 112.35 335.567 113.192 336.193 114.022C336.815 114.846 337.551 115.317 338.403 115.436C339.25 115.549 339.973 115.379 340.573 114.926C341.174 114.473 341.574 114.02 341.774 113.569C341.981 113.112 342.072 112.688 342.047 112.296L341.483 111.549L339.701 112.893C339.624 112.951 339.555 112.938 339.492 112.855L339.16 112.415C339.102 112.338 339.111 112.271 339.188 112.213L341.669 110.341C341.745 110.283 341.813 110.293 341.87 110.369L344.061 113.272C344.118 113.348 344.109 113.415 344.032 113.473ZM350.468 108.617L345.229 112.57C345.146 112.633 345.075 112.626 345.018 112.549L344.649 112.061C344.591 111.984 344.604 111.915 344.687 111.852L345.415 111.303L341.309 105.862L340.581 106.411C340.498 106.474 340.428 106.467 340.37 106.39L340.001 105.902C339.943 105.825 339.956 105.755 340.039 105.693L342.328 103.965C342.411 103.903 342.484 103.913 342.547 103.996L342.901 104.465C342.964 104.548 342.954 104.621 342.871 104.684L342.143 105.233L346.248 110.674L349.294 108.375L348.586 107.437C348.528 107.36 348.541 107.29 348.624 107.228L349.141 106.837C349.218 106.78 349.285 106.789 349.343 106.866L350.499 108.398C350.562 108.481 350.552 108.554 350.468 108.617ZM353.842 102.162L351.074 98.4936L350.336 99.0502C350.26 99.108 350.193 99.0986 350.135 99.022L349.766 98.5334C349.708 98.4568 349.718 98.3896 349.794 98.3317L352.103 96.5898C352.18 96.532 352.247 96.5414 352.305 96.618L352.673 97.1065C352.731 97.1832 352.722 97.2504 352.645 97.3082L351.907 97.8648L354.611 101.447C355.261 102.309 355.531 103.138 355.42 103.934C355.31 104.718 354.843 105.421 354.019 106.043C353.202 106.659 352.398 106.915 351.607 106.81C350.812 106.699 350.089 106.213 349.438 105.35L346.735 101.768L346.007 102.317C345.924 102.38 345.853 102.373 345.796 102.296L345.427 101.808C345.369 101.731 345.382 101.661 345.465 101.599L347.764 99.8641C347.847 99.8014 347.917 99.8084 347.975 99.8851L348.344 100.374C348.401 100.45 348.389 100.52 348.306 100.583L347.568 101.139L350.293 104.75C351.218 105.976 352.268 106.146 353.443 105.26C354.044 104.807 354.366 104.318 354.411 103.793C354.451 103.261 354.262 102.718 353.842 102.162ZM361.459 100.354L361.828 100.842C361.89 100.925 361.88 100.998 361.797 101.061C361.024 101.644 360.091 101.847 358.996 101.671C358.459 101.585 357.901 101.35 357.321 100.966C356.736 100.575 356.195 100.051 355.699 99.3936C355.202 98.7359 354.852 98.0785 354.646 97.4215C354.437 96.7581 354.364 96.1567 354.428 95.6173C354.557 94.5274 355.012 93.6884 355.791 93.1005C355.874 93.0379 355.946 93.0481 356.009 93.1311L356.378 93.6196C356.44 93.7027 356.43 93.7755 356.347 93.8381C355.804 94.2477 355.494 94.8926 355.417 95.7729C355.375 96.1954 355.447 96.6768 355.635 97.217C355.817 97.7509 356.113 98.2892 356.523 98.832C356.927 99.3685 357.364 99.8008 357.832 100.129C358.302 100.446 358.743 100.639 359.156 100.708C360.003 100.861 360.698 100.733 361.241 100.323C361.324 100.26 361.396 100.271 361.459 100.354ZM367.195 95.9953L366.285 96.682C366.01 96.8892 365.772 96.8587 365.57 96.5905L363.669 94.0712C363.389 93.7009 363.083 93.4809 362.75 93.4115C362.417 93.3421 362.078 93.4375 361.733 93.6977C361.471 93.8953 361.301 94.0886 361.224 94.2776C361.147 94.4554 361.098 94.6027 361.076 94.7196C361.049 94.8301 361.035 94.9309 361.034 95.0221C361.034 95.1821 361.05 95.3357 361.081 95.4828L363.061 98.1074L363.569 97.7243C363.652 97.6617 363.722 97.6687 363.78 97.7453L364.091 98.1572C364.149 98.2339 364.136 98.3035 364.053 98.3661L362.224 99.7467C362.141 99.8093 362.07 99.8023 362.012 99.7257L361.701 99.3138C361.644 99.2372 361.656 99.1675 361.739 99.1049L362.266 98.7074L358.045 93.1133L357.518 93.5108C357.435 93.5734 357.365 93.5664 357.307 93.4898L356.996 93.0779C356.938 93.0013 356.951 92.9317 357.034 92.869L358.241 91.9583C358.317 91.9005 358.385 91.9099 358.442 91.9865L360.054 94.1226C360.213 94.3333 360.348 94.5377 360.457 94.7358L360.476 94.7214C360.418 93.9935 360.731 93.3718 361.414 92.8562C361.925 92.4707 362.437 92.3196 362.951 92.4029C363.465 92.4862 363.918 92.7809 364.31 93.287L366.174 95.7583L366.711 95.3536C366.794 95.2909 366.864 95.2979 366.922 95.3745L367.233 95.7864C367.291 95.8631 367.278 95.9327 367.195 95.9953ZM372.206 90.771L371.65 91.1902C371.574 91.248 371.504 91.2354 371.442 91.1524L370.668 90.1275L369.624 90.9153C369.535 90.9828 369.459 90.975 369.396 90.892L369.027 90.4035C368.965 90.3204 368.978 90.2452 369.068 90.1777L370.112 89.3899L369.317 88.3362C369.259 88.2596 369.268 88.1923 369.345 88.1345L369.9 87.7153C369.977 87.6575 370.044 87.6669 370.102 87.7435L370.897 88.7972L371.912 88.031C371.995 87.9684 372.068 87.9786 372.131 88.0616L372.5 88.5501C372.562 88.6331 372.552 88.706 372.469 88.7686L371.454 89.5348L372.227 90.5597C372.29 90.6427 372.283 90.7132 372.206 90.771ZM384.891 82.6422L382.726 84.2757C382.65 84.3336 382.583 84.3242 382.525 84.2475L382.156 83.759C382.098 83.6824 382.108 83.6152 382.184 83.5573L382.855 83.0514L380.982 81.864L378.309 83.8806L378.937 86.0076L379.608 85.5017C379.684 85.4438 379.751 85.4532 379.809 85.5299L380.178 86.0184C380.236 86.095 380.226 86.1623 380.15 86.2201L377.994 87.8464C377.918 87.9042 377.851 87.8948 377.793 87.8182L377.424 87.3296C377.366 87.253 377.376 87.1858 377.452 87.128L378.094 86.6437L376.048 79.6488L375.531 80.0391C375.448 80.1018 375.377 80.0948 375.32 80.0182L374.951 79.5296C374.893 79.453 374.906 79.3834 374.989 79.3207L376.291 78.3377C376.445 78.2221 376.584 78.1673 376.709 78.1733C376.84 78.1745 376.99 78.2269 377.158 78.3304L383.698 82.4153L384.349 81.9238C384.426 81.866 384.493 81.8754 384.551 81.952L384.919 82.4405C384.977 82.5172 384.968 82.5844 384.891 82.6422ZM380.224 81.3982L377.014 79.3556L376.986 79.3773L378.06 83.0318L380.224 81.3982ZM387.811 79.6726C387.856 79.6789 387.89 79.698 387.914 79.7299C387.933 79.7555 387.938 79.8018 387.929 79.8691C387.836 80.3301 387.575 80.7221 387.147 81.045C386.726 81.363 386.274 81.4883 385.793 81.4209C385.312 81.3423 384.872 81.038 384.472 80.508L382.579 77.9983L382.042 78.4031C381.953 78.4705 381.877 78.4627 381.814 78.3797L381.518 77.987C381.455 77.904 381.468 77.8287 381.558 77.7613L382.094 77.3565L381.364 76.389C381.297 76.2996 381.308 76.2212 381.397 76.1537L381.934 75.749C382.017 75.6863 382.092 75.6997 382.159 75.7891L382.889 76.7566L384.106 75.8386C384.195 75.7712 384.271 75.7789 384.334 75.862L384.63 76.2547C384.693 76.3377 384.68 76.413 384.59 76.4804L383.374 77.3984L385.253 79.8889C385.494 80.2082 385.747 80.3979 386.013 80.4579C386.28 80.5067 386.532 80.442 386.768 80.2637C387.011 80.0806 387.147 79.8826 387.177 79.6697C387.198 79.564 387.257 79.5238 387.357 79.5491L387.811 79.6726ZM391.384 76.9762C391.429 76.9825 391.463 77.0016 391.487 77.0335C391.507 77.0591 391.512 77.1055 391.502 77.1727C391.409 77.6338 391.149 78.0257 390.721 78.3486C390.299 78.6666 389.848 78.7919 389.366 78.7245C388.886 78.6459 388.446 78.3416 388.046 77.8116L386.152 75.3019L385.616 75.7067C385.526 75.7741 385.45 75.7664 385.387 75.6833L385.091 75.2906C385.028 75.2076 385.042 75.1324 385.131 75.0649L385.668 74.6601L384.938 73.6926C384.87 73.6032 384.881 73.5248 384.971 73.4574L385.507 73.0526C385.59 72.9899 385.665 73.0033 385.733 73.0927L386.463 74.0602L387.679 73.1422C387.769 73.0748 387.845 73.0826 387.907 73.1656L388.204 73.5583C388.266 73.6413 388.253 73.7166 388.164 73.784L386.947 74.702L388.826 77.1925C389.067 77.5118 389.321 77.7015 389.586 77.7615C389.854 77.8103 390.106 77.7456 390.342 77.5673C390.584 77.3842 390.721 77.1862 390.75 76.9733C390.771 76.8676 390.831 76.8274 390.93 76.8528L391.384 76.9762ZM397.419 73.189L396.509 73.8757C396.235 74.0829 395.996 74.0524 395.794 73.7841L393.893 71.2649C393.613 70.8945 393.307 70.6746 392.974 70.6052C392.641 70.5357 392.302 70.6311 391.957 70.8913C391.466 71.2624 391.234 71.7527 391.263 72.3622C391.26 72.4246 391.272 72.5261 391.298 72.6669L393.285 75.3011L393.793 74.918C393.876 74.8554 393.946 74.8623 394.004 74.939L394.315 75.3509C394.373 75.4275 394.36 75.4971 394.277 75.5598L392.448 76.9403C392.365 77.003 392.294 76.996 392.236 76.9193L391.926 76.5075C391.868 76.4308 391.88 76.3612 391.963 76.2985L392.49 75.901L389.903 72.4717L389.376 72.8693C389.293 72.9319 389.222 72.9249 389.165 72.8483L388.854 72.4364C388.796 72.3598 388.809 72.2901 388.892 72.2275L390.012 71.3818C390.095 71.3192 390.166 71.3262 390.224 71.4028L390.696 72.0686L390.725 72.0469C390.637 71.2408 390.942 70.5751 391.638 70.0499C392.149 69.6644 392.661 69.5133 393.175 69.5966C393.689 69.6799 394.142 69.9746 394.534 70.4806L396.398 72.952L396.935 72.5472C397.018 72.4846 397.088 72.4916 397.146 72.5682L397.457 72.9801C397.515 73.0567 397.502 73.1264 397.419 73.189ZM401.496 70.1428L401.865 70.6313C401.927 70.7143 401.917 70.7872 401.834 70.8498C401.061 71.4329 400.128 71.6364 399.033 71.4604C398.496 71.374 397.938 71.1388 397.358 70.7549C396.773 70.3646 396.232 69.8406 395.736 69.1828C395.239 68.5251 394.889 67.8677 394.683 67.2107C394.473 66.5473 394.4 65.9459 394.465 65.4065C394.594 64.3165 395.048 63.4776 395.828 62.8897C395.911 62.8271 395.983 62.8373 396.046 62.9203L396.415 63.4088C396.477 63.4918 396.467 63.5647 396.384 63.6273C395.841 64.0369 395.531 64.6818 395.454 65.562C395.412 65.9846 395.484 66.4659 395.672 67.0062C395.854 67.5401 396.15 68.0784 396.56 68.6212C396.964 69.1576 397.401 69.59 397.869 69.9182C398.339 70.2352 398.78 70.4283 399.193 70.4975C400.04 70.6503 400.735 70.5218 401.277 70.1122C401.361 70.0496 401.433 70.0598 401.496 70.1428ZM407.232 65.7845L406.322 66.4712C406.047 66.6784 405.809 66.6479 405.606 66.3797L403.706 63.8604C403.426 63.49 403.12 63.2701 402.787 63.2007C402.454 63.1313 402.115 63.2267 401.77 63.4869C401.508 63.6844 401.338 63.8777 401.261 64.0668C401.184 64.2446 401.135 64.3919 401.113 64.5088C401.086 64.6193 401.072 64.7201 401.071 64.8113C401.071 64.9713 401.087 65.1249 401.118 65.272L403.098 67.8966L403.606 67.5135C403.689 67.4509 403.759 67.4579 403.817 67.5345L404.128 67.9464C404.186 68.023 404.173 68.0927 404.09 68.1553L402.26 69.5359C402.177 69.5985 402.107 69.5915 402.049 69.5149L401.738 69.103C401.681 69.0263 401.693 68.9567 401.776 68.8941L402.303 68.4965L398.082 62.9024L397.555 63.3C397.472 63.3626 397.402 63.3556 397.344 63.279L397.033 62.8671C396.975 62.7905 396.988 62.7208 397.071 62.6582L398.278 61.7475C398.354 61.6896 398.422 61.699 398.479 61.7757L400.091 63.9118C400.25 64.1225 400.384 64.3269 400.494 64.525L400.513 64.5105C400.455 63.7827 400.767 63.161 401.451 62.6454C401.962 62.2599 402.474 62.1088 402.988 62.1921C403.502 62.2754 403.955 62.5701 404.346 63.0761L406.211 65.5475L406.748 65.1427C406.831 65.0801 406.901 65.0871 406.959 65.1637L407.27 65.5756C407.328 65.6522 407.315 65.7219 407.232 65.7845ZM408.113 65.9165L407.752 65.4375C407.684 65.3481 407.695 65.2697 407.785 65.2022C408.334 64.7878 408.65 64.1581 408.734 63.313C408.776 62.8905 408.706 62.4123 408.524 61.8784C408.348 61.3398 408.057 60.8022 407.652 60.2658C407.243 59.723 406.806 59.2906 406.343 58.9688C405.875 58.6406 405.43 58.4355 405.007 58.3535C404.144 58.1928 403.441 58.3173 402.898 58.7269C402.809 58.7943 402.733 58.7865 402.67 58.7035L402.302 58.215C402.239 58.132 402.252 58.0567 402.342 57.9893C403.108 57.411 404.034 57.2035 405.119 57.3668C405.662 57.4484 406.22 57.6836 406.794 58.0723C407.374 58.4562 407.913 58.977 408.409 59.6348C408.905 60.2925 409.261 60.9563 409.476 61.6261C409.692 62.2846 409.765 62.886 409.695 63.4302C409.563 64.5314 409.115 65.3711 408.348 65.9494C408.259 66.0168 408.18 66.0059 408.113 65.9165ZM412.061 62.9377L411.699 62.4588C411.632 62.3694 411.643 62.2909 411.732 62.2235C412.281 61.8091 412.598 61.1794 412.682 60.3343C412.724 59.9118 412.654 59.4336 412.471 58.8997C412.295 58.361 412.005 57.8235 411.6 57.287C411.19 56.7442 410.754 56.3119 410.291 55.9901C409.822 55.6618 409.377 55.4567 408.954 55.3748C408.092 55.2141 407.389 55.3385 406.846 55.7481C406.757 55.8156 406.681 55.8078 406.618 55.7248L406.249 55.2363C406.187 55.1533 406.2 55.078 406.289 55.0106C407.056 54.4323 407.981 54.2248 409.067 54.388C409.609 54.4697 410.168 54.7048 410.742 55.0935C411.322 55.4775 411.86 55.9983 412.357 56.656C412.853 57.3138 413.208 57.9776 413.423 58.6473C413.64 59.3059 413.713 59.9073 413.642 60.4515C413.511 61.5527 413.062 62.3924 412.296 62.9706C412.206 63.0381 412.128 63.0271 412.061 62.9377Z" fill="black"/>
<path d="M204.578 128.429L203.506 128.041C203.182 127.924 203.078 127.708 203.192 127.392L204.265 124.424C204.422 123.988 204.439 123.611 204.316 123.294C204.192 122.977 203.927 122.745 203.521 122.598C203.213 122.487 202.958 122.45 202.757 122.488C202.566 122.521 202.416 122.561 202.306 122.606C202.199 122.644 202.107 122.687 202.03 122.736C201.896 122.823 201.776 122.92 201.669 123.026L200.551 126.119L201.15 126.335C201.247 126.37 201.28 126.433 201.247 126.523L201.072 127.009C201.039 127.099 200.974 127.126 200.876 127.091L198.721 126.312C198.623 126.276 198.59 126.214 198.623 126.123L198.798 125.638C198.831 125.548 198.896 125.52 198.994 125.556L199.615 125.78L201.997 119.189L201.377 118.965C201.279 118.93 201.246 118.867 201.279 118.777L201.454 118.291C201.487 118.201 201.552 118.174 201.65 118.209L203.072 118.723C203.162 118.756 203.191 118.817 203.158 118.907L202.249 121.424C202.159 121.672 202.061 121.896 201.955 122.096L201.977 122.104C202.555 121.658 203.247 121.581 204.052 121.872C204.654 122.089 205.06 122.436 205.271 122.912C205.481 123.388 205.482 123.928 205.272 124.533L204.219 127.444L204.851 127.673C204.949 127.708 204.982 127.771 204.949 127.861L204.773 128.347C204.741 128.437 204.676 128.464 204.578 128.429ZM211.691 129.775L211.036 129.539C210.946 129.506 210.918 129.441 210.954 129.343L211.39 128.135L210.16 127.691C210.055 127.653 210.02 127.585 210.055 127.487L210.263 126.911C210.299 126.814 210.369 126.784 210.474 126.822L211.704 127.266L212.153 126.025C212.186 125.935 212.247 125.906 212.337 125.939L212.992 126.175C213.082 126.208 213.111 126.269 213.078 126.36L212.63 127.601L213.826 128.033C213.924 128.069 213.955 128.135 213.92 128.233L213.712 128.809C213.676 128.906 213.61 128.938 213.512 128.902L212.316 128.47L211.879 129.677C211.844 129.775 211.781 129.808 211.691 129.775ZM225.426 135.966L222.876 135.044C222.786 135.011 222.757 134.949 222.789 134.859L222.998 134.284C223.03 134.193 223.092 134.165 223.182 134.197L223.972 134.483L223.944 132.265L220.795 131.127L219.356 132.814L220.146 133.1C220.236 133.132 220.265 133.194 220.233 133.284L220.025 133.86C219.992 133.95 219.93 133.979 219.84 133.946L217.301 133.028C217.211 132.996 217.182 132.934 217.215 132.844L217.423 132.268C217.455 132.178 217.517 132.149 217.607 132.182L218.363 132.455L223.107 126.922L222.497 126.702C222.399 126.667 222.367 126.604 222.399 126.513L222.607 125.938C222.64 125.848 222.705 125.82 222.803 125.856L224.338 126.41C224.518 126.476 224.64 126.562 224.703 126.67C224.774 126.781 224.812 126.935 224.817 127.132L224.965 134.842L225.732 135.119C225.823 135.152 225.851 135.213 225.819 135.303L225.611 135.879C225.578 135.969 225.517 135.998 225.426 135.966ZM223.921 131.376L223.88 127.572L223.846 127.56L221.37 130.454L223.921 131.376ZM229.508 136.79C229.527 136.831 229.53 136.871 229.517 136.908C229.506 136.938 229.47 136.968 229.408 136.997C228.971 137.17 228.5 137.166 227.996 136.984C227.5 136.804 227.148 136.494 226.942 136.054C226.745 135.609 226.76 135.074 226.986 134.449L228.055 131.493L227.423 131.264C227.317 131.226 227.282 131.158 227.318 131.06L227.485 130.598C227.52 130.5 227.591 130.47 227.696 130.508L228.328 130.736L228.74 129.597C228.778 129.491 228.85 129.458 228.955 129.496L229.587 129.724C229.685 129.76 229.715 129.83 229.677 129.935L229.265 131.075L230.698 131.593C230.803 131.631 230.838 131.699 230.803 131.797L230.636 132.26C230.6 132.357 230.53 132.387 230.425 132.349L228.991 131.831L227.931 134.765C227.795 135.142 227.774 135.457 227.869 135.713C227.974 135.963 228.166 136.139 228.444 136.24C228.73 136.343 228.97 136.349 229.165 136.258C229.265 136.217 229.331 136.246 229.364 136.343L229.508 136.79ZM233.718 138.312C233.737 138.353 233.74 138.392 233.727 138.43C233.716 138.46 233.68 138.49 233.618 138.518C233.181 138.692 232.71 138.688 232.206 138.506C231.71 138.326 231.358 138.016 231.152 137.576C230.955 137.13 230.97 136.596 231.196 135.971L232.265 133.014L231.633 132.786C231.527 132.748 231.492 132.68 231.528 132.582L231.695 132.119C231.73 132.022 231.801 131.992 231.906 132.03L232.538 132.258L232.95 131.119C232.988 131.013 233.06 130.98 233.165 131.018L233.797 131.246C233.895 131.281 233.925 131.352 233.887 131.457L233.475 132.597L234.908 133.115C235.013 133.153 235.048 133.221 235.013 133.319L234.846 133.782C234.81 133.879 234.74 133.909 234.634 133.871L233.201 133.353L232.141 136.287C232.005 136.663 231.984 136.979 232.079 137.235C232.184 137.485 232.376 137.661 232.654 137.762C232.94 137.865 233.18 137.871 233.375 137.78C233.474 137.739 233.541 137.767 233.574 137.864L233.718 138.312ZM240.186 141.301L239.114 140.913C238.79 140.796 238.686 140.58 238.8 140.264L239.873 137.296C240.031 136.86 240.048 136.483 239.924 136.166C239.8 135.849 239.535 135.617 239.129 135.47C238.55 135.261 238.013 135.335 237.518 135.692C237.464 135.723 237.385 135.788 237.281 135.887L236.16 138.991L236.758 139.207C236.856 139.242 236.888 139.305 236.855 139.395L236.68 139.88C236.647 139.971 236.582 139.998 236.484 139.963L234.329 139.184C234.231 139.148 234.199 139.085 234.231 138.995L234.407 138.51C234.439 138.42 234.504 138.392 234.602 138.428L235.223 138.652L236.683 134.612L236.063 134.387C235.965 134.352 235.932 134.289 235.965 134.199L236.14 133.714C236.173 133.623 236.238 133.596 236.336 133.631L237.656 134.109C237.754 134.144 237.787 134.207 237.754 134.297L237.454 135.056L237.488 135.069C238.116 134.555 238.84 134.447 239.66 134.744C240.262 134.961 240.668 135.308 240.879 135.784C241.09 136.26 241.09 136.8 240.88 137.405L239.827 140.316L240.459 140.545C240.557 140.58 240.59 140.643 240.557 140.733L240.382 141.219C240.349 141.309 240.284 141.336 240.186 141.301ZM244.964 143.054L244.756 143.629C244.72 143.727 244.654 143.758 244.556 143.723C243.646 143.394 242.965 142.722 242.515 141.709C242.295 141.213 242.187 140.616 242.192 139.921C242.199 139.217 242.343 138.478 242.623 137.703C242.903 136.928 243.263 136.276 243.701 135.745C244.142 135.207 244.606 134.818 245.093 134.577C246.077 134.09 247.028 134.013 247.946 134.345C248.044 134.38 248.075 134.447 248.04 134.544L247.832 135.12C247.796 135.218 247.73 135.249 247.632 135.214C246.992 134.983 246.283 135.075 245.503 135.49C245.126 135.686 244.763 136.01 244.412 136.461C244.064 136.906 243.775 137.447 243.544 138.087C243.315 138.719 243.191 139.321 243.172 139.892C243.163 140.459 243.242 140.934 243.409 141.318C243.744 142.111 244.231 142.623 244.87 142.854C244.968 142.889 244.999 142.956 244.964 143.054ZM251.747 145.48L250.675 145.092C250.351 144.976 250.247 144.759 250.361 144.443L251.434 141.475C251.591 141.039 251.608 140.662 251.485 140.345C251.361 140.028 251.096 139.796 250.69 139.649C250.382 139.538 250.127 139.501 249.926 139.539C249.735 139.572 249.585 139.612 249.475 139.657C249.368 139.695 249.276 139.738 249.199 139.787C249.065 139.874 248.945 139.971 248.838 140.077L247.72 143.17L248.319 143.386C248.416 143.421 248.449 143.484 248.416 143.574L248.241 144.06C248.208 144.15 248.143 144.177 248.045 144.142L245.89 143.363C245.792 143.327 245.759 143.265 245.792 143.174L245.967 142.689C246 142.599 246.065 142.571 246.163 142.607L246.784 142.831L249.166 136.24L248.545 136.016C248.448 135.981 248.415 135.918 248.448 135.828L248.623 135.342C248.656 135.252 248.721 135.225 248.819 135.26L250.241 135.774C250.331 135.807 250.36 135.868 250.327 135.958L249.417 138.475C249.328 138.723 249.23 138.947 249.124 139.147L249.146 139.155C249.724 138.709 250.416 138.632 251.221 138.923C251.823 139.14 252.229 139.487 252.44 139.963C252.65 140.439 252.651 140.979 252.441 141.584L251.388 144.495L252.02 144.724C252.118 144.759 252.151 144.822 252.118 144.912L251.942 145.398C251.91 145.488 251.845 145.515 251.747 145.48ZM252.117 146.29L252.321 145.726C252.359 145.621 252.431 145.587 252.536 145.625C253.183 145.859 253.884 145.78 254.638 145.389C255.015 145.194 255.377 144.874 255.725 144.43C256.08 143.988 256.372 143.451 256.6 142.819C256.831 142.18 256.955 141.578 256.972 141.014C256.991 140.443 256.92 139.958 256.758 139.559C256.422 138.748 255.934 138.227 255.294 137.996C255.189 137.958 255.154 137.89 255.189 137.792L255.397 137.217C255.433 137.119 255.503 137.089 255.608 137.127C256.511 137.454 257.19 138.116 257.646 139.114C257.874 139.614 257.982 140.21 257.969 140.903C257.964 141.599 257.822 142.334 257.542 143.109C257.262 143.884 256.9 144.544 256.456 145.09C256.022 145.63 255.558 146.02 255.064 146.258C254.069 146.749 253.121 146.832 252.218 146.505C252.113 146.467 252.079 146.396 252.117 146.29Z" fill="black"/>
<path d="M325.963 336.935C323.657 337.494 322 339.889 322 341.997C322 343.924 323.297 345.005 324.738 345.005C326.863 345.005 328.304 342.087 328.304 339.691C328.304 338.07 327.548 337.08 327.098 336.485C326.431 335.639 325.35 334.252 325.35 333.387C325.35 333.081 325.584 332.54 326.377 332.54C326.935 332.54 327.278 332.739 327.818 333.045C327.98 333.153 328.394 333.387 328.629 333.387C329.007 333.387 329.277 333.009 329.277 332.72C329.277 332.378 329.007 332.324 328.376 332.18C327.53 332 327.278 332 326.971 332C326.665 332 324.9 332 324.9 333.837C324.9 334.72 325.35 335.747 325.963 336.935ZM326.161 337.278C326.845 338.701 327.116 339.241 327.116 340.412C327.116 341.817 326.359 344.645 324.756 344.645C324.053 344.645 323.045 344.176 323.045 342.501C323.045 341.33 323.711 337.926 326.161 337.278Z" fill="black"/>
<path d="M334.828 332.739C334.846 332.666 334.882 332.558 334.882 332.468C334.882 332.288 334.702 332.288 334.666 332.288C334.648 332.288 333.765 332.36 333.675 332.378C333.369 332.396 333.099 332.432 332.774 332.45C332.324 332.486 332.198 332.504 332.198 332.829C332.198 333.009 332.342 333.009 332.594 333.009C333.477 333.009 333.495 333.171 333.495 333.351C333.495 333.459 333.459 333.603 333.441 333.657L330.829 344.086C330.757 344.357 330.757 344.393 330.757 344.501C330.757 344.897 331.063 344.969 331.243 344.969C331.55 344.969 331.784 344.735 331.874 344.537L332.684 341.276C332.774 340.88 332.883 340.502 332.973 340.106C333.171 339.349 333.171 339.331 333.513 338.809C333.855 338.286 334.666 337.206 336.053 337.206C336.773 337.206 337.025 337.746 337.025 338.466C337.025 339.475 336.323 341.439 335.927 342.519C335.765 342.952 335.674 343.186 335.674 343.51C335.674 344.321 336.233 344.969 337.097 344.969C338.773 344.969 339.403 342.321 339.403 342.213C339.403 342.123 339.331 342.051 339.223 342.051C339.061 342.051 339.043 342.105 338.953 342.411C338.538 343.852 337.872 344.609 337.152 344.609C336.971 344.609 336.683 344.591 336.683 344.014C336.683 343.546 336.899 342.97 336.971 342.771C337.296 341.907 338.106 339.781 338.106 338.737C338.106 337.656 337.476 336.845 336.107 336.845C335.08 336.845 334.179 337.332 333.441 338.268L334.828 332.739Z" fill="black"/>
<g filter="url(#filter0_f_14_3)">
<rect x="288.25" y="12.25" width="240.5" height="506.5" stroke="black" stroke-width="0.5" stroke-dasharray="2 2"/>
</g>
<defs>
<filter id="filter0_f_14_3" x="286" y="10" width="245" height="511" filterUnits="userSpaceOnUse" color-interpolation-filters="sRGB">
<feFlood flood-opacity="0" result="BackgroundImageFix"/>
<feBlend mode="normal" in="SourceGraphic" in2="BackgroundImageFix" result="shape"/>
<feGaussianBlur stdDeviation="1" result="effect1_foregroundBlur_14_3"/>
</filter>
</defs>
</svg>
